;TYPE=PLATED
;Layer: PTH_Through
;EasyEDA Pro v1.7.31, 2022-10-01 17:20:28
;Gerber Generator version 0.3
M48
METRIC,LZ,000.000
;Hole size 1 = 0.305 METRIC
T01C0.305
;Hole size 2 = 0.914 METRIC
T02C0.914
%
G05
G90
T01
X009525Y020320
X011557Y020320
X013081Y019558
X028448Y020447
X028448Y021971
X022606Y019304
X028448Y017399
X026289Y014351
X026289Y016002
X014605Y017145
X016256Y016002
X014478Y014859
X017145Y009906
X029464Y012573
X039243Y022479
X028448Y018923
X018288Y010795
X031623Y017907
X035433Y018034
X036449Y009271
X036195Y014986
X035179Y019685
X038100Y021082
X021844Y009144
X020701Y009525
X032879Y012206
X015748Y018923
X017272Y019050
X019558Y019812
X021336Y019685
X031484Y019702
X014605Y013208
X016256Y013208
X014605Y011811
X016256Y011811
X010795Y018415
X012350Y018161
X031469Y009906
X038735Y015875
X038862Y012319
X010287Y013220
X014478Y018669
X027305Y023368
X029972Y023368
X018415Y009652
X018415Y019812
X020447Y020574
X029083Y006985
X033233Y023113
X026670Y011303
X028575Y015113
X025654Y022987
X023241Y020955
X040894Y023749
X039751Y025146
X013716Y009779
X022352Y012954
X019304Y012700
X022352Y016637
X021463Y010287
X014097Y020447
X017526Y012573
T02
X014732Y004699
X017272Y004699
X009652Y004699
X012192Y004699
X019812Y004699
X022352Y004699
X024892Y004699
X027432Y004699
X035052Y004699
X014732Y025019
X009652Y025019
X012192Y025019
X037592Y004699
X029972Y004699
X032512Y004699
X019812Y025019
X022352Y025019
X024892Y025019
X027432Y025019
X032512Y025019
X029972Y025019
X017272Y025019
X035052Y025019
X037592Y025019
M30