G04 Layer: BottomLayer*
G04 EasyEDA Pro v1.7.31, 2022-10-01 17:20:27*
G04 Gerber Generator version 0.3*
G04 Scale: 100 percent, Rotated: No, Reflected: No*
G04 Dimensions in millimeters*
G04 Leading zeros omitted, absolute positions, 3 integers and 3 decimals*
%FSLAX33Y33*%
%MOMM*%
%ADD999C,0.2032*%
%ADD10C,1.524*%
%ADD11C,0.610001*%
%ADD12C,0.254*%
%ADD13C,0.635*%
G75*


G04 Copper Start*
G36*
G01X41679Y3988D02*
G02X41097Y3406I-582J0D01*
G01X9754D01*
G01Y3584D01*
G03X10772Y4699I-102J1115D01*
G03X9754Y5814I-1120J0D01*
G01Y10134D01*
G01X13231Y6657D01*
G01Y6424D01*
G01X12831Y6024D01*
G01X12080Y5814D01*
G03X11072Y4699I112J-1115D01*
G03X12192Y3579I1120J0D01*
G03X13307Y4587I0J1120D01*
G01X13517Y5338D01*
G01X14059Y5880D01*
G03X14201Y6223I-343J343D01*
G01Y6858D01*
G03X14059Y7201I-485J0D01*
G01X10010Y11250D01*
G01Y19868D01*
G03X10188Y20320I-485J452D01*
G03X9754Y20942I-663J0D01*
G01Y26185D01*
G01X41097D01*
G02X41679Y25603I0J-582D01*
G01Y3988D01*
G37*
%LPC*%
G36*
G01X19812Y3579D02*
G03X20932Y4699I0J1120D01*
G03X19924Y5814I-1120J0D01*
G01X19173Y6024D01*
G01X13566Y11631D01*
G01Y17071D01*
G01X13917Y17422D01*
G01X14002D01*
G03X13942Y17145I603J-277D01*
G03X14605Y16482I663J0D01*
G03X15126Y16735I0J663D01*
G01X15248Y16787D01*
G01X26924D01*
G03X27251Y16914I0J485D01*
G01X27873D01*
G01X28080Y16848D01*
G03X28373Y16740I368J551D01*
G01X28120Y16487D01*
G01X26864D01*
G01X26657Y16553D01*
G03X26289Y16665I-368J-551D01*
G03X25921Y16553I0J-663D01*
G01X25714Y16487D01*
G01X16831D01*
G01X16624Y16553D01*
G03X16256Y16665I-368J-551D01*
G03X15593Y16002I0J-663D01*
G03X16172Y15344I663J0D01*
G01X15053D01*
G01X14846Y15410D01*
G03X14478Y15522I-368J-551D01*
G03X13815Y14859I0J-663D01*
G03X14478Y14196I663J0D01*
G03X14846Y14308I0J663D01*
G01X15053Y14374D01*
G01X25560D01*
G01X25639Y14222D01*
G03X26289Y13688I650J129D01*
G03X26952Y14351I0J663D01*
G03X26418Y15001I-663J0D01*
G01X26226Y15100D01*
G01X26124Y15202D01*
G03X25781Y15344I-343J-343D01*
G01X16340D01*
G03X16624Y15451I-84J658D01*
G01X16831Y15517D01*
G01X25714D01*
G01X25921Y15451D01*
G03X26289Y15339I368J551D01*
G03X26657Y15451I0J663D01*
G01X26864Y15517D01*
G01X28321D01*
G03X28664Y15659I0J485D01*
G01X30948Y17943D01*
G03X30947Y17907I675J-36D01*
G01Y15012D01*
G01X28986Y13051D01*
G03X28788Y12573I478J-478D01*
G03X28922Y12169I676J0D01*
G01X28649D01*
G01X28156Y12662D01*
G03X27813Y12804I-343J-343D01*
G01X26035D01*
G03X25692Y12662I0J-485D01*
G01X25199Y12169D01*
G01X17780D01*
G03X17437Y12027I0J-485D01*
G01X16802Y11392D01*
G03X16660Y11049I343J-343D01*
G01Y10481D01*
G01X16594Y10274D01*
G03X16482Y9906I551J-368D01*
G03X17016Y9256I663J0D01*
G01X17208Y9157D01*
G01X21027Y5338D01*
G01X21237Y4587D01*
G03X22352Y3579I1115J112D01*
G03X23472Y4699I0J1120D01*
G03X22464Y5814I-1120J0D01*
G01X21713Y6024D01*
G01X17894Y9843D01*
G01X17795Y10035D01*
G03X17696Y10274I-650J-129D01*
G01X17630Y10481D01*
G01Y10711D01*
G03X18159Y10145I658J84D01*
G01X18351Y10046D01*
G01X22390Y6007D01*
G03X22733Y5865I343J343D01*
G01X25072D01*
G01X25147Y5790D01*
G03X24892Y5819I-255J-1091D01*
G03X23772Y4699I0J-1120D01*
G03X24892Y3579I1120J0D01*
G03X26012Y4699I0J1120D01*
G03X25990Y4920I-1120J0D01*
G01X26468Y4128D01*
G01X26479Y4110D01*
G03X27432Y3579I953J589D01*
G03X28552Y4699I0J1120D01*
G03X27432Y5819I-1120J0D01*
G03X27068Y5758I0J-1120D01*
G01X26482Y5827D01*
G01X25616Y6693D01*
G03X25273Y6835I-343J-343D01*
G01X22934D01*
G01X20882Y8887D01*
G03X21185Y9072I-181J638D01*
G03X21844Y8481I659J72D01*
G03X22212Y8593I0J663D01*
G01X22419Y8659D01*
G01X28120D01*
G01X31282Y5497D01*
G01X31399Y4826D01*
G03X31392Y4699I1113J-127D01*
G03X32512Y3579I1120J0D01*
G03X33632Y4699I0J1120D01*
G03X33630Y4762I-1120J0D01*
G01X34106Y4099D01*
G03X34190Y3984I946J600D01*
G03X35052Y3579I862J715D01*
G03X36172Y4699I0J1120D01*
G03X36091Y5117I-1120J0D01*
G01X36129Y5079D01*
G01X36504Y4431D01*
G03X37592Y3579I1088J268D01*
G03X38712Y4699I0J1120D01*
G03X37627Y5819I-1120J0D01*
G01X37020Y6100D01*
G01X33569Y9551D01*
G01Y12206D01*
G03X32893Y12882I-676J0D01*
G01X32879D01*
G03X32203Y12206I0J-676D01*
G03X32217Y12069I676J0D01*
G01Y9271D01*
G03X32415Y8793I676J0D01*
G01X35470Y5738D01*
G03X35052Y5819I-418J-1039D01*
G03X34572Y5711I0J-1120D01*
G01X34023Y5779D01*
G01X29807Y9995D01*
G03X29464Y10137I-343J-343D01*
G01X21174D01*
G01X20854Y10170D01*
G03X20701Y10188I-153J-645D01*
G03X20063Y9706I0J-663D01*
G01X19037Y10732D01*
G01X18938Y10924D01*
G03X18814Y11199I-650J-129D01*
G01X25400D01*
G03X25743Y11341I0J485D01*
G01X26236Y11834D01*
G01X27612D01*
G01X28105Y11341D01*
G03X28448Y11199I343J343D01*
G01X30607D01*
G03X30950Y11341I0J485D01*
G01X38443Y18834D01*
G03X38585Y19177I-343J343D01*
G01Y20507D01*
G01X38651Y20714D01*
G03X38763Y21082I-551J368D01*
G03X38189Y21739I-663J0D01*
G01X38253Y21803D01*
G01X39243D01*
G03X39919Y22479I0J676D01*
G03X39243Y23155I-676J0D01*
G01X37973D01*
G03X37495Y22957I0J-676D01*
G01X34899Y20361D01*
G01X32426D01*
G01Y23823D01*
G01X32642Y23906D01*
G03X33632Y25019I-130J1113D01*
G03X32512Y26139I-1120J0D01*
G03X31399Y25149I0J-1120D01*
G01X31213Y24668D01*
G03X31074Y24257I537J-411D01*
G01Y20248D01*
G01X31006Y20180D01*
G03X30808Y19702I478J-478D01*
G03X30973Y19260I676J0D01*
G03X30772Y19139I142J-464D01*
G01X29107Y17474D01*
G03X28448Y18062I-659J-75D01*
G03X28080Y17950I0J-663D01*
G01X27873Y17884D01*
G01X27051D01*
G03X26724Y17757I0J-485D01*
G01X26698D01*
G01X27379Y18438D01*
G01X27873D01*
G01X28080Y18372D01*
G03X28448Y18260I368J551D01*
G03X29111Y18923I0J663D01*
G03X28448Y19586I-663J0D01*
G03X28080Y19474I0J-663D01*
G01X27873Y19408D01*
G01X27333D01*
G01X27884Y19959D01*
G01X28080Y19896D01*
G03X28448Y19784I368J551D01*
G03X29111Y20447I0J663D01*
G03X28448Y21110I-663J0D01*
G03X28080Y20998I0J-663D01*
G01X27873Y20932D01*
G01X27686D01*
G03X27343Y20790I0J-485D01*
G01X25453Y18900D01*
G01X25288D01*
G03X25362Y18961I-269J404D01*
G01X27884Y21483D01*
G01X28080Y21420D01*
G03X28448Y21308I368J551D01*
G03X29111Y21971I0J663D01*
G03X28448Y22634I-663J0D01*
G03X28080Y22522I0J-663D01*
G01X27873Y22456D01*
G01X27686D01*
G03X27343Y22314I0J-485D01*
G01X24818Y19789D01*
G01X23181D01*
G01X22974Y19855D01*
G03X22606Y19967I-368J-551D01*
G03X21975Y19509I0J-663D01*
G03X21999Y19685I-639J176D01*
G03X21887Y20053I-663J0D01*
G01X21821Y20260D01*
G01Y23548D01*
G01X21883Y23609D01*
G01X22702Y23955D01*
G03X23472Y25019I-350J1064D01*
G03X22352Y26139I-1120J0D01*
G03X21232Y25019I0J-1120D01*
G03X21239Y24892I1120J0D01*
G01X21122Y24221D01*
G01X20993Y24092D01*
G03X20851Y23749I343J-343D01*
G01Y20260D01*
G01X20785Y20053D01*
G03X20673Y19685I551J-368D01*
G03X21336Y19022I663J0D01*
G03X21967Y19480I0J663D01*
G03X21943Y19304I639J-176D01*
G03X22080Y18900I663J0D01*
G01X17918D01*
G03X17935Y19050I-646J150D01*
G03X17823Y19418I-663J0D01*
G01X17757Y19625D01*
G01Y23630D01*
G01X18139Y24310D01*
G03X18392Y25019I-867J709D01*
G03X17272Y26139I-1120J0D01*
G03X16152Y25019I0J-1120D01*
G03X16405Y24310I1120J0D01*
G01X16787Y23630D01*
G01Y19625D01*
G01X16721Y19418D01*
G03X16609Y19050I551J-368D01*
G03X16626Y18900I663J0D01*
G01X16477D01*
G01X16398Y19052D01*
G03X15748Y19586I-650J-129D01*
G03X15085Y18923I0J-663D01*
G03X15351Y18392I663J0D01*
G01X13716D01*
G03X13566Y18368I0J-485D01*
G01Y18983D01*
G01X13632Y19190D01*
G03X13744Y19558I-551J368D01*
G03X13081Y20221I-663J0D01*
G03X12418Y19558I0J-663D01*
G03X12530Y19190I663J0D01*
G01X12596Y18983D01*
G01Y17272D01*
G01Y11430D01*
G03X12738Y11087I485J0D01*
G01X18487Y5338D01*
G01X18697Y4587D01*
G03X19812Y3579I1115J112D01*
G37*
G36*
G01X17272Y3579D02*
G03X18392Y4699I0J1120D01*
G03X17861Y5652I-1120J0D01*
G01X17843Y5663D01*
G01X16983Y6182D01*
G01X12042Y11123D01*
G01Y19745D01*
G01X12108Y19952D01*
G03X12220Y20320I-551J368D01*
G03X11557Y20983I-663J0D01*
G03X10894Y20320I0J-663D01*
G03X11006Y19952I663J0D01*
G01X11072Y19745D01*
G01Y10922D01*
G03X11214Y10579I485J0D01*
G01X16144Y5649D01*
G01X16213Y5063D01*
G03X16152Y4699I1059J-364D01*
G03X17272Y3579I1120J0D01*
G37*
G36*
G01X19558Y19149D02*
G03X20221Y19812I0J663D01*
G03X20109Y20180I-663J0D01*
G01X20043Y20387D01*
G01Y23570D01*
G01X20428Y24084D01*
G03X20932Y25019I-616J935D01*
G03X19812Y26139I-1120J0D01*
G03X18692Y25019I0J-1120D01*
G03X18769Y24610I1120J0D01*
G01X19073Y23720D01*
G01Y20387D01*
G01X19007Y20180D01*
G03X18895Y19812I551J-368D01*
G03X19558Y19149I663J0D01*
G37*
G36*
G01X35790Y9198D02*
G03X36449Y8608I659J73D01*
G03X37112Y9271I0J663D01*
G03X36680Y9893I-663J0D01*
G01Y14411D01*
G01X36746Y14618D01*
G03X36858Y14986I-551J368D01*
G03X36195Y15649I-663J0D01*
G03X35532Y14986I0J-663D01*
G03X35644Y14618I663J0D01*
G01X35710Y14411D01*
G01Y9525D01*
G03X35770Y9291I485J0D01*
G01X35790Y9198D01*
G37*
G36*
G01X13612Y4699D02*
G03X14732Y3579I1120J0D01*
G03X15852Y4699I0J1120D01*
G03X14732Y5819I-1120J0D01*
G03X13612Y4699I0J-1120D01*
G37*
G36*
G01X12192Y23899D02*
G03X13312Y25019I0J1120D01*
G03X12192Y26139I-1120J0D01*
G03X11072Y25019I0J-1120D01*
G03X12192Y23899I1120J0D01*
G37*
G36*
G01X37592Y23899D02*
G03X38712Y25019I0J1120D01*
G03X37592Y26139I-1120J0D01*
G03X36472Y25019I0J-1120D01*
G03X37592Y23899I1120J0D01*
G37*
G36*
G01X28852Y25019D02*
G03X29972Y23899I1120J0D01*
G03X31092Y25019I0J1120D01*
G03X29972Y26139I-1120J0D01*
G03X28852Y25019I0J-1120D01*
G37*
G36*
G01X24892Y23899D02*
G03X26012Y25019I0J1120D01*
G03X24892Y26139I-1120J0D01*
G03X23772Y25019I0J-1120D01*
G03X24892Y23899I1120J0D01*
G37*
G36*
G01X14732Y23899D02*
G03X15852Y25019I0J1120D01*
G03X14732Y26139I-1120J0D01*
G03X13612Y25019I0J-1120D01*
G03X14732Y23899I1120J0D01*
G37*
G36*
G01X26312Y25019D02*
G03X27432Y23899I1120J0D01*
G03X28552Y25019I0J1120D01*
G03X27432Y26139I-1120J0D01*
G03X26312Y25019I0J-1120D01*
G37*
%LPD*%
G54D999*
G01X41679Y3988D02*
G02X41097Y3406I-582J0D01*
G01X9754D01*
G01Y3584D01*
G03X10772Y4699I-102J1115D01*
G03X9754Y5814I-1120J0D01*
G01Y10134D01*
G01X13231Y6657D01*
G01Y6424D01*
G01X12831Y6024D01*
G01X12080Y5814D01*
G03X11072Y4699I112J-1115D01*
G03X12192Y3579I1120J0D01*
G03X13307Y4587I0J1120D01*
G01X13517Y5338D01*
G01X14059Y5880D01*
G03X14201Y6223I-343J343D01*
G01Y6858D01*
G03X14059Y7201I-485J0D01*
G01X10010Y11250D01*
G01Y19868D01*
G03X10188Y20320I-485J452D01*
G03X9754Y20942I-663J0D01*
G01Y26185D01*
G01X41097D01*
G02X41679Y25603I0J-582D01*
G01Y3988D01*
G01X19812Y3579D02*
G03X20932Y4699I0J1120D01*
G03X19924Y5814I-1120J0D01*
G01X19173Y6024D01*
G01X13566Y11631D01*
G01Y17071D01*
G01X13917Y17422D01*
G01X14002D01*
G03X13942Y17145I603J-277D01*
G03X14605Y16482I663J0D01*
G03X15126Y16735I0J663D01*
G01X15248Y16787D01*
G01X26924D01*
G03X27251Y16914I0J485D01*
G01X27873D01*
G01X28080Y16848D01*
G03X28373Y16740I368J551D01*
G01X28120Y16487D01*
G01X26864D01*
G01X26657Y16553D01*
G03X26289Y16665I-368J-551D01*
G03X25921Y16553I0J-663D01*
G01X25714Y16487D01*
G01X16831D01*
G01X16624Y16553D01*
G03X16256Y16665I-368J-551D01*
G03X15593Y16002I0J-663D01*
G03X16172Y15344I663J0D01*
G01X15053D01*
G01X14846Y15410D01*
G03X14478Y15522I-368J-551D01*
G03X13815Y14859I0J-663D01*
G03X14478Y14196I663J0D01*
G03X14846Y14308I0J663D01*
G01X15053Y14374D01*
G01X25560D01*
G01X25639Y14222D01*
G03X26289Y13688I650J129D01*
G03X26952Y14351I0J663D01*
G03X26418Y15001I-663J0D01*
G01X26226Y15100D01*
G01X26124Y15202D01*
G03X25781Y15344I-343J-343D01*
G01X16340D01*
G03X16624Y15451I-84J658D01*
G01X16831Y15517D01*
G01X25714D01*
G01X25921Y15451D01*
G03X26289Y15339I368J551D01*
G03X26657Y15451I0J663D01*
G01X26864Y15517D01*
G01X28321D01*
G03X28664Y15659I0J485D01*
G01X30948Y17943D01*
G03X30947Y17907I675J-36D01*
G01Y15012D01*
G01X28986Y13051D01*
G03X28788Y12573I478J-478D01*
G03X28922Y12169I676J0D01*
G01X28649D01*
G01X28156Y12662D01*
G03X27813Y12804I-343J-343D01*
G01X26035D01*
G03X25692Y12662I0J-485D01*
G01X25199Y12169D01*
G01X17780D01*
G03X17437Y12027I0J-485D01*
G01X16802Y11392D01*
G03X16660Y11049I343J-343D01*
G01Y10481D01*
G01X16594Y10274D01*
G03X16482Y9906I551J-368D01*
G03X17016Y9256I663J0D01*
G01X17208Y9157D01*
G01X21027Y5338D01*
G01X21237Y4587D01*
G03X22352Y3579I1115J112D01*
G03X23472Y4699I0J1120D01*
G03X22464Y5814I-1120J0D01*
G01X21713Y6024D01*
G01X17894Y9843D01*
G01X17795Y10035D01*
G03X17696Y10274I-650J-129D01*
G01X17630Y10481D01*
G01Y10711D01*
G03X18159Y10145I658J84D01*
G01X18351Y10046D01*
G01X22390Y6007D01*
G03X22733Y5865I343J343D01*
G01X25072D01*
G01X25147Y5790D01*
G03X24892Y5819I-255J-1091D01*
G03X23772Y4699I0J-1120D01*
G03X24892Y3579I1120J0D01*
G03X26012Y4699I0J1120D01*
G03X25990Y4920I-1120J0D01*
G01X26468Y4128D01*
G01X26479Y4110D01*
G03X27432Y3579I953J589D01*
G03X28552Y4699I0J1120D01*
G03X27432Y5819I-1120J0D01*
G03X27068Y5758I0J-1120D01*
G01X26482Y5827D01*
G01X25616Y6693D01*
G03X25273Y6835I-343J-343D01*
G01X22934D01*
G01X20882Y8887D01*
G03X21185Y9072I-181J638D01*
G03X21844Y8481I659J72D01*
G03X22212Y8593I0J663D01*
G01X22419Y8659D01*
G01X28120D01*
G01X31282Y5497D01*
G01X31399Y4826D01*
G03X31392Y4699I1113J-127D01*
G03X32512Y3579I1120J0D01*
G03X33632Y4699I0J1120D01*
G03X33630Y4762I-1120J0D01*
G01X34106Y4099D01*
G03X34190Y3984I946J600D01*
G03X35052Y3579I862J715D01*
G03X36172Y4699I0J1120D01*
G03X36091Y5117I-1120J0D01*
G01X36129Y5079D01*
G01X36504Y4431D01*
G03X37592Y3579I1088J268D01*
G03X38712Y4699I0J1120D01*
G03X37627Y5819I-1120J0D01*
G01X37020Y6100D01*
G01X33569Y9551D01*
G01Y12206D01*
G03X32893Y12882I-676J0D01*
G01X32879D01*
G03X32203Y12206I0J-676D01*
G03X32217Y12069I676J0D01*
G01Y9271D01*
G03X32415Y8793I676J0D01*
G01X35470Y5738D01*
G03X35052Y5819I-418J-1039D01*
G03X34572Y5711I0J-1120D01*
G01X34023Y5779D01*
G01X29807Y9995D01*
G03X29464Y10137I-343J-343D01*
G01X21174D01*
G01X20854Y10170D01*
G03X20701Y10188I-153J-645D01*
G03X20063Y9706I0J-663D01*
G01X19037Y10732D01*
G01X18938Y10924D01*
G03X18814Y11199I-650J-129D01*
G01X25400D01*
G03X25743Y11341I0J485D01*
G01X26236Y11834D01*
G01X27612D01*
G01X28105Y11341D01*
G03X28448Y11199I343J343D01*
G01X30607D01*
G03X30950Y11341I0J485D01*
G01X38443Y18834D01*
G03X38585Y19177I-343J343D01*
G01Y20507D01*
G01X38651Y20714D01*
G03X38763Y21082I-551J368D01*
G03X38189Y21739I-663J0D01*
G01X38253Y21803D01*
G01X39243D01*
G03X39919Y22479I0J676D01*
G03X39243Y23155I-676J0D01*
G01X37973D01*
G03X37495Y22957I0J-676D01*
G01X34899Y20361D01*
G01X32426D01*
G01Y23823D01*
G01X32642Y23906D01*
G03X33632Y25019I-130J1113D01*
G03X32512Y26139I-1120J0D01*
G03X31399Y25149I0J-1120D01*
G01X31213Y24668D01*
G03X31074Y24257I537J-411D01*
G01Y20248D01*
G01X31006Y20180D01*
G03X30808Y19702I478J-478D01*
G03X30973Y19260I676J0D01*
G03X30772Y19139I142J-464D01*
G01X29107Y17474D01*
G03X28448Y18062I-659J-75D01*
G03X28080Y17950I0J-663D01*
G01X27873Y17884D01*
G01X27051D01*
G03X26724Y17757I0J-485D01*
G01X26698D01*
G01X27379Y18438D01*
G01X27873D01*
G01X28080Y18372D01*
G03X28448Y18260I368J551D01*
G03X29111Y18923I0J663D01*
G03X28448Y19586I-663J0D01*
G03X28080Y19474I0J-663D01*
G01X27873Y19408D01*
G01X27333D01*
G01X27884Y19959D01*
G01X28080Y19896D01*
G03X28448Y19784I368J551D01*
G03X29111Y20447I0J663D01*
G03X28448Y21110I-663J0D01*
G03X28080Y20998I0J-663D01*
G01X27873Y20932D01*
G01X27686D01*
G03X27343Y20790I0J-485D01*
G01X25453Y18900D01*
G01X25288D01*
G03X25362Y18961I-269J404D01*
G01X27884Y21483D01*
G01X28080Y21420D01*
G03X28448Y21308I368J551D01*
G03X29111Y21971I0J663D01*
G03X28448Y22634I-663J0D01*
G03X28080Y22522I0J-663D01*
G01X27873Y22456D01*
G01X27686D01*
G03X27343Y22314I0J-485D01*
G01X24818Y19789D01*
G01X23181D01*
G01X22974Y19855D01*
G03X22606Y19967I-368J-551D01*
G03X21975Y19509I0J-663D01*
G03X21999Y19685I-639J176D01*
G03X21887Y20053I-663J0D01*
G01X21821Y20260D01*
G01Y23548D01*
G01X21883Y23609D01*
G01X22702Y23955D01*
G03X23472Y25019I-350J1064D01*
G03X22352Y26139I-1120J0D01*
G03X21232Y25019I0J-1120D01*
G03X21239Y24892I1120J0D01*
G01X21122Y24221D01*
G01X20993Y24092D01*
G03X20851Y23749I343J-343D01*
G01Y20260D01*
G01X20785Y20053D01*
G03X20673Y19685I551J-368D01*
G03X21336Y19022I663J0D01*
G03X21967Y19480I0J663D01*
G03X21943Y19304I639J-176D01*
G03X22080Y18900I663J0D01*
G01X17918D01*
G03X17935Y19050I-646J150D01*
G03X17823Y19418I-663J0D01*
G01X17757Y19625D01*
G01Y23630D01*
G01X18139Y24310D01*
G03X18392Y25019I-867J709D01*
G03X17272Y26139I-1120J0D01*
G03X16152Y25019I0J-1120D01*
G03X16405Y24310I1120J0D01*
G01X16787Y23630D01*
G01Y19625D01*
G01X16721Y19418D01*
G03X16609Y19050I551J-368D01*
G03X16626Y18900I663J0D01*
G01X16477D01*
G01X16398Y19052D01*
G03X15748Y19586I-650J-129D01*
G03X15085Y18923I0J-663D01*
G03X15351Y18392I663J0D01*
G01X13716D01*
G03X13566Y18368I0J-485D01*
G01Y18983D01*
G01X13632Y19190D01*
G03X13744Y19558I-551J368D01*
G03X13081Y20221I-663J0D01*
G03X12418Y19558I0J-663D01*
G03X12530Y19190I663J0D01*
G01X12596Y18983D01*
G01Y17272D01*
G01Y11430D01*
G03X12738Y11087I485J0D01*
G01X18487Y5338D01*
G01X18697Y4587D01*
G03X19812Y3579I1115J112D01*
G01X17272Y3579D02*
G03X18392Y4699I0J1120D01*
G03X17861Y5652I-1120J0D01*
G01X17843Y5663D01*
G01X16983Y6182D01*
G01X12042Y11123D01*
G01Y19745D01*
G01X12108Y19952D01*
G03X12220Y20320I-551J368D01*
G03X11557Y20983I-663J0D01*
G03X10894Y20320I0J-663D01*
G03X11006Y19952I663J0D01*
G01X11072Y19745D01*
G01Y10922D01*
G03X11214Y10579I485J0D01*
G01X16144Y5649D01*
G01X16213Y5063D01*
G03X16152Y4699I1059J-364D01*
G03X17272Y3579I1120J0D01*
G01X19558Y19149D02*
G03X20221Y19812I0J663D01*
G03X20109Y20180I-663J0D01*
G01X20043Y20387D01*
G01Y23570D01*
G01X20428Y24084D01*
G03X20932Y25019I-616J935D01*
G03X19812Y26139I-1120J0D01*
G03X18692Y25019I0J-1120D01*
G03X18769Y24610I1120J0D01*
G01X19073Y23720D01*
G01Y20387D01*
G01X19007Y20180D01*
G03X18895Y19812I551J-368D01*
G03X19558Y19149I663J0D01*
G01X35790Y9198D02*
G03X36449Y8608I659J73D01*
G03X37112Y9271I0J663D01*
G03X36680Y9893I-663J0D01*
G01Y14411D01*
G01X36746Y14618D01*
G03X36858Y14986I-551J368D01*
G03X36195Y15649I-663J0D01*
G03X35532Y14986I0J-663D01*
G03X35644Y14618I663J0D01*
G01X35710Y14411D01*
G01Y9525D01*
G03X35770Y9291I485J0D01*
G01X35790Y9198D01*
G01X13612Y4699D02*
G03X14732Y3579I1120J0D01*
G03X15852Y4699I0J1120D01*
G03X14732Y5819I-1120J0D01*
G03X13612Y4699I0J-1120D01*
G01X12192Y23899D02*
G03X13312Y25019I0J1120D01*
G03X12192Y26139I-1120J0D01*
G03X11072Y25019I0J-1120D01*
G03X12192Y23899I1120J0D01*
G01X37592Y23899D02*
G03X38712Y25019I0J1120D01*
G03X37592Y26139I-1120J0D01*
G03X36472Y25019I0J-1120D01*
G03X37592Y23899I1120J0D01*
G01X28852Y25019D02*
G03X29972Y23899I1120J0D01*
G03X31092Y25019I0J1120D01*
G03X29972Y26139I-1120J0D01*
G03X28852Y25019I0J-1120D01*
G01X24892Y23899D02*
G03X26012Y25019I0J1120D01*
G03X24892Y26139I-1120J0D01*
G03X23772Y25019I0J-1120D01*
G03X24892Y23899I1120J0D01*
G01X14732Y23899D02*
G03X15852Y25019I0J1120D01*
G03X14732Y26139I-1120J0D01*
G03X13612Y25019I0J-1120D01*
G03X14732Y23899I1120J0D01*
G01X26312Y25019D02*
G03X27432Y23899I1120J0D01*
G03X28552Y25019I0J1120D01*
G03X27432Y26139I-1120J0D01*
G03X26312Y25019I0J-1120D01*
G04 Copper End*

G04 Tear Start*
G36*
G01X17673Y5347D02*
G01X16761Y5898D01*
G01X16485Y5814D01*
G01X16579Y5015D01*
G01X17673Y5347D01*
G37*
G36*
G01X12953Y4651D02*
G01X13198Y5525D01*
G01X13018Y5705D01*
G01X12144Y5460D01*
G01X12953Y4651D01*
G37*
G36*
G01X19860Y5460D02*
G01X18986Y5705D01*
G01X18806Y5525D01*
G01X19051Y4651D01*
G01X19860Y5460D01*
G37*
G36*
G01X22400Y5460D02*
G01X21526Y5705D01*
G01X21346Y5525D01*
G01X21591Y4651D01*
G01X22400Y5460D01*
G37*
G36*
G01X27116Y5392D02*
G01X26317Y5486D01*
G01X26233Y5210D01*
G01X26784Y4298D01*
G01X27116Y5392D01*
G37*
G36*
G01X34642Y5342D02*
G01X33857Y5439D01*
G01X33808Y5128D01*
G01X34466Y4212D01*
G01X34642Y5342D01*
G37*
G36*
G01X37550Y5460D02*
G01X36811Y5802D01*
G01X36416Y5299D01*
G01X36842Y4562D01*
G01X37550Y5460D01*
G37*
G36*
G01X32738Y5427D02*
G01X31839Y5806D01*
G01X31616Y5670D01*
G01X31762Y4832D01*
G01X32738Y5427D01*
G37*
G36*
G01X19105Y24734D02*
G01X19431Y23780D01*
G01X19685Y23690D01*
G01X20183Y24353D01*
G01X19105Y24734D01*
G37*
G36*
G01X21602Y24886D02*
G01X21456Y24048D01*
G01X21679Y23912D01*
G01X22578Y24291D01*
G01X21602Y24886D01*
G37*
G36*
G01X31751Y25067D02*
G01X31525Y24482D01*
G01X31975Y24032D01*
G01X32560Y24258D01*
G01X31751Y25067D01*
G37*
G36*
G01X16701Y24515D02*
G01X17145Y23724D01*
G01X17399D01*
G01X17844Y24515D01*
G01X16701D01*
G37*
G36*
G01X11328Y20118D02*
G01X11430Y19801D01*
G01X11684D01*
G01X11786Y20118D01*
G01X11328D01*
G37*
G36*
G01X12852Y19356D02*
G01X12954Y19039D01*
G01X13208D01*
G01X13310Y19356D01*
G01X12852D01*
G37*
G36*
G01X28246Y20676D02*
G01X27929Y20574D01*
G01Y20320D01*
G01X28246Y20218D01*
G01Y20676D01*
G37*
G36*
G01X28246Y22200D02*
G01X27929Y22098D01*
G01Y21844D01*
G01X28246Y21742D01*
G01Y22200D01*
G37*
G36*
G01X22808Y19075D02*
G01X23125Y19177D01*
G01Y19431D01*
G01X22808Y19533D01*
G01Y19075D01*
G37*
G36*
G01X28246Y17628D02*
G01X27929Y17526D01*
G01Y17272D01*
G01X28246Y17170D01*
G01Y17628D01*
G37*
G36*
G01X26308Y14655D02*
G01X26012Y14807D01*
G01X25833Y14628D01*
G01X25985Y14332D01*
G01X26308Y14655D01*
G37*
G36*
G01X26087Y16231D02*
G01X25770Y16129D01*
G01Y15875D01*
G01X26087Y15773D01*
G01Y16231D01*
G37*
G36*
G01X26491Y15773D02*
G01X26808Y15875D01*
G01Y16129D01*
G01X26491Y16231D01*
G01Y15773D01*
G37*
G36*
G01X14884Y17021D02*
G01X15175Y17145D01*
G01X15059Y17399D01*
G01X14693Y17437D01*
G01X14884Y17021D01*
G37*
G36*
G01X16458Y15773D02*
G01X16775Y15875D01*
G01Y16129D01*
G01X16458Y16231D01*
G01Y15773D01*
G37*
G36*
G01X14680Y14630D02*
G01X14997Y14732D01*
G01Y14986D01*
G01X14680Y15088D01*
G01Y14630D01*
G37*
G36*
G01X17374Y10108D02*
G01X17272Y10425D01*
G01X17018D01*
G01X16916Y10108D01*
G01X17374D01*
G37*
G36*
G01X17126Y9602D02*
G01X17422Y9450D01*
G01X17601Y9629D01*
G01X17449Y9925D01*
G01X17126Y9602D01*
G37*
G36*
G01X28246Y19152D02*
G01X27929Y19050D01*
G01Y18796D01*
G01X28246Y18694D01*
G01Y19152D01*
G37*
G36*
G01X18269Y10491D02*
G01X18565Y10339D01*
G01X18744Y10518D01*
G01X18592Y10814D01*
G01X18269Y10491D01*
G37*
G36*
G01X35452Y18338D02*
G01X35156Y18490D01*
G01X34977Y18311D01*
G01X35129Y18015D01*
G01X35452Y18338D01*
G37*
G36*
G01X36468Y9575D02*
G01X36285Y9615D01*
G01X36105Y9435D01*
G01X36145Y9252D01*
G01X36468Y9575D01*
G37*
G36*
G01X35966Y14784D02*
G01X36068Y14467D01*
G01X36322D01*
G01X36424Y14784D01*
G01X35966D01*
G37*
G36*
G01X37871Y20880D02*
G01X37973Y20563D01*
G01X38227D01*
G01X38329Y20880D01*
G01X37871D01*
G37*
G36*
G01X22046Y8915D02*
G01X22363Y9017D01*
G01Y9271D01*
G01X22046Y9373D01*
G01Y8915D01*
G37*
G36*
G01X20980Y9401D02*
G01X21271Y9525D01*
G01X21155Y9779D01*
G01X20789Y9817D01*
G01X20980Y9401D01*
G37*
G36*
G01X15729Y18619D02*
G01X16025Y18467D01*
G01X16204Y18646D01*
G01X16052Y18942D01*
G01X15729Y18619D01*
G37*
G36*
G01X17501Y19252D02*
G01X17399Y19569D01*
G01X17145D01*
G01X17043Y19252D01*
G01X17501D01*
G37*
G36*
G01X19787Y20014D02*
G01X19685Y20331D01*
G01X19431D01*
G01X19329Y20014D01*
G01X19787D01*
G37*
G36*
G01X21565Y19887D02*
G01X21463Y20204D01*
G01X21209D01*
G01X21107Y19887D01*
G01X21565D01*
G37*
G36*
G01X31488Y10210D02*
G01X31192Y10362D01*
G01X31012Y10183D01*
G01X31164Y9887D01*
G01X31488Y10210D01*
G37*
G36*
G01X26651Y10999D02*
G01X26947Y10847D01*
G01X27126Y11026D01*
G01X26974Y11322D01*
G01X26651Y10999D01*
G37*
G36*
G01X25452Y23216D02*
G01X25273Y23114D01*
G01Y22860D01*
G01X25452Y22758D01*
G01Y23216D01*
G37*
G36*
G01X23545Y20936D02*
G01X23697Y21232D01*
G01X23518Y21411D01*
G01X23222Y21259D01*
G01X23545Y20936D01*
G37*
G04 Tear End*

G04 Pad Start*
G54D10*
G01X14732Y4699D03*
G01X17272Y4699D03*
G01X9652Y4699D03*
G01X12192Y4699D03*
G01X19812Y4699D03*
G01X22352Y4699D03*
G01X24892Y4699D03*
G01X27432Y4699D03*
G01X35052Y4699D03*
G01X14732Y25019D03*
G01X9652Y25019D03*
G01X12192Y25019D03*
G01X37592Y4699D03*
G01X29972Y4699D03*
G01X32512Y4699D03*
G01X19812Y25019D03*
G01X22352Y25019D03*
G01X24892Y25019D03*
G01X27432Y25019D03*
G01X32512Y25019D03*
G01X29972Y25019D03*
G01X17272Y25019D03*
G01X35052Y25019D03*
G01X37592Y25019D03*
G04 Pad End*

G04 Via Start*
G54D11*
G01X9525Y20320D03*
G01X11557Y20320D03*
G01X13081Y19558D03*
G01X28448Y20447D03*
G01X28448Y21971D03*
G01X22606Y19304D03*
G01X28448Y17399D03*
G01X26289Y14351D03*
G01X26289Y16002D03*
G01X14605Y17145D03*
G01X16256Y16002D03*
G01X14478Y14859D03*
G01X17145Y9906D03*
G01X29464Y12573D03*
G01X39243Y22479D03*
G01X28448Y18923D03*
G01X18288Y10795D03*
G01X31623Y17907D03*
G01X35433Y18034D03*
G01X36449Y9271D03*
G01X36195Y14986D03*
G01X35179Y19685D03*
G01X38100Y21082D03*
G01X21844Y9144D03*
G01X20701Y9525D03*
G01X32879Y12206D03*
G01X15748Y18923D03*
G01X17272Y19050D03*
G01X19558Y19812D03*
G01X21336Y19685D03*
G01X31484Y19702D03*
G01X14605Y13208D03*
G01X16256Y13208D03*
G01X14605Y11811D03*
G01X16256Y11811D03*
G01X10795Y18415D03*
G01X12350Y18161D03*
G01X31469Y9906D03*
G01X38735Y15875D03*
G01X38862Y12319D03*
G01X10287Y13220D03*
G01X14478Y18669D03*
G01X27305Y23368D03*
G01X29972Y23368D03*
G01X18415Y9652D03*
G01X18415Y19812D03*
G01X20447Y20574D03*
G01X29083Y6985D03*
G01X33233Y23113D03*
G01X26670Y11303D03*
G01X28575Y15113D03*
G01X25654Y22987D03*
G01X23241Y20955D03*
G01X40894Y23749D03*
G01X39751Y25146D03*
G01X13716Y9779D03*
G01X22352Y12954D03*
G01X19304Y12700D03*
G01X22352Y16637D03*
G01X21463Y10287D03*
G01X14097Y20447D03*
G01X17526Y12573D03*
G04 Via End*

G04 Track Start*
G54D12*
G01X17272Y4699D02*
G01X17272Y5207D01*
G01X13716Y6223D02*
G01X13716Y6858D01*
G01X12192Y4699D02*
G01X13716Y6223D01*
G01X9525Y20320D02*
G01X9525Y11049D01*
G01X13716Y6858D01*
G01X11557Y20320D02*
G01X11557Y10922D01*
G01X17272Y5207D01*
G01X36195Y14986D02*
G01X36195Y9525D01*
G01X36449Y9271D01*
G54D13*
G01X39243Y22479D02*
G01X37973Y22479D01*
G54D12*
G01X28448Y18923D02*
G01X27178Y18923D01*
G54D13*
G01X32879Y12206D02*
G01X32893Y12206D01*
G01X37592Y4699D02*
G01X37465Y4699D01*
G01X32893Y9271D01*
G01Y12206D01*
G54D12*
G01X13081Y11430D02*
G01X19812Y4699D01*
G01X13081Y17272D02*
G01X13081Y11430D01*
G01X28448Y20447D02*
G01X27686Y20447D01*
G01X13081Y19558D02*
G01X13081Y17272D01*
G01X22352Y24765D02*
G01X22352Y25019D01*
G01X16256Y16002D02*
G01X26289Y16002D01*
G01X13081Y17272D02*
G01X13716Y17907D01*
G01X26162D01*
G01X27178Y18923D01*
G01X14478Y14859D02*
G01X25781Y14859D01*
G01X26289Y14351D01*
G01X28448Y21971D02*
G01X27686Y21971D01*
G01X28448Y17399D02*
G01X27051Y17399D01*
G01X35433Y18034D02*
G01X34671Y18796D01*
G01X18288Y10795D02*
G01X22733Y6350D01*
G01X25273Y6350D02*
G01X22733Y6350D01*
G01X17145Y9906D02*
G01X22352Y4699D01*
G01X17145Y9906D02*
G01X17145Y11049D01*
G01X17780Y11684D01*
G01X38100Y21082D02*
G01X38100Y19177D01*
G01X30607Y11684D01*
G01X35052Y4699D02*
G01X34417Y4699D01*
G54D13*
G01X31750Y19968D02*
G01X31484Y19702D01*
G01X31750Y24257D02*
G01X31750Y19968D01*
G01X32512Y25019D02*
G01X31750Y24257D01*
G01X29464Y12573D02*
G01X31623Y14732D01*
G01Y17907D01*
G54D12*
G01X19558Y19812D02*
G01X19558Y24765D01*
G01X19812Y25019D01*
G54D13*
G01X35179Y19685D02*
G01X37973Y22479D01*
G01X35179Y19685D02*
G01X31501Y19685D01*
G01X31484Y19702D01*
G54D12*
G01X25654Y18415D02*
G01X27686Y20447D01*
G01X17272Y19050D02*
G01X17272Y25019D01*
G01X15748Y18923D02*
G01X16256Y18415D01*
G01X25654D01*
G01X27432Y4699D02*
G01X26924Y4699D01*
G01X25273Y6350D02*
G01X26924Y4699D01*
G01X25400Y11684D02*
G01X26035Y12319D01*
G01X27813D01*
G01X28448Y11684D01*
G01X30607Y11684D02*
G01X28448Y11684D01*
G01X25400Y11684D02*
G01X17780Y11684D01*
G01X26670Y11303D02*
G01X27305Y10668D01*
G01X30707Y10668D02*
G01X31469Y9906D01*
G01X27305Y10668D02*
G01X30707Y10668D01*
G01X34671Y18796D02*
G01X31115Y18796D01*
G01X28321Y16002D01*
G01X26289D01*
G01X22606Y19304D02*
G01X25019Y19304D01*
G01X27686Y21971D01*
G01X23241Y20955D02*
G01X25273Y22987D01*
G01X25654D01*
G01X21336Y19685D02*
G01X21336Y23749D01*
G01X22352Y24765D01*
G01X14605Y17145D02*
G01X14732Y17272D01*
G01X26924D01*
G01X27051Y17399D01*
G01X20701Y9525D02*
G01X20828Y9652D01*
G01X29464D01*
G01X34417Y4699D01*
G01X21844Y9144D02*
G01X28321Y9144D01*
G01X32512Y4953D01*
G01Y4699D01*
G04 Track End*

M02*
