G04 Layer: TopSilkscreenLayer*
G04 EasyEDA Pro v1.7.31, 2022-10-01 17:20:27*
G04 Gerber Generator version 0.3*
G04 Scale: 100 percent, Rotated: No, Reflected: No*
G04 Dimensions in millimeters*
G04 Leading zeros omitted, absolute positions, 3 integers and 3 decimals*
%FSLAX33Y33*%
%MOMM*%
%ADD10C,0.1524*%
%ADD11C,0.254*%
%ADD12C,0.150012*%
%ADD13C,0.00508*%
%ADD14C,0.1*%
%ADD15C,0.2481*%
%ADD16C,0.240005*%
G75*


G04 Text Start*
G04 //text: U3*
G54D10*
G01X38303Y23929D02*
G01X38303Y23465D01*
G01X38334Y23373D01*
G01X38397Y23310D01*
G01X38489Y23279D01*
G01X38552D01*
G01X38644Y23310D01*
G01X38705Y23373D01*
G01X38738Y23465D01*
G01Y23929D01*
G01X39101Y23929D02*
G01X39441Y23929D01*
G01X39253Y23683D01*
G01X39347D01*
G01X39408Y23652D01*
G01X39441Y23619D01*
G01X39472Y23528D01*
G01Y23465D01*
G01X39441Y23373D01*
G01X39378Y23310D01*
G01X39286Y23279D01*
G01X39192D01*
G01X39101Y23310D01*
G01X39068Y23343D01*
G01X39037Y23404D01*
G04 //text: PWR*
G01X29921Y23802D02*
G01X29921Y23152D01*
G01X29921Y23802D02*
G01X30201Y23802D01*
G01X30292Y23772D01*
G01X30323Y23741D01*
G01X30356Y23678D01*
G01Y23586D01*
G01X30323Y23525D01*
G01X30292Y23492D01*
G01X30201Y23462D01*
G01X29921D01*
G01X30655Y23802D02*
G01X30810Y23152D01*
G01X30965Y23802D02*
G01X30810Y23152D01*
G01X30965Y23802D02*
G01X31120Y23152D01*
G01X31275Y23802D02*
G01X31120Y23152D01*
G01X31575Y23802D02*
G01X31575Y23152D01*
G01X31575Y23802D02*
G01X31854Y23802D01*
G01X31948Y23772D01*
G01X31979Y23741D01*
G01X32009Y23678D01*
G01Y23617D01*
G01X31979Y23556D01*
G01X31948Y23525D01*
G01X31854Y23492D01*
G01X31575D01*
G01X31793Y23492D02*
G01X32009Y23152D01*
G04 //text: D1*
G01X32207Y15293D02*
G01X32207Y14643D01*
G01X32207Y15293D02*
G01X32423Y15293D01*
G01X32517Y15263D01*
G01X32578Y15202D01*
G01X32609Y15138D01*
G01X32642Y15047D01*
G01Y14892D01*
G01X32609Y14798D01*
G01X32578Y14737D01*
G01X32517Y14674D01*
G01X32423Y14643D01*
G01X32207D01*
G01X32941Y15169D02*
G01X33005Y15202D01*
G01X33096Y15293D01*
G01Y14643D01*
G04 //text: U4*
G01X28905Y7800D02*
G01X28905Y7336D01*
G01X28936Y7244D01*
G01X28999Y7181D01*
G01X29091Y7150D01*
G01X29154D01*
G01X29246Y7181D01*
G01X29307Y7244D01*
G01X29340Y7336D01*
G01Y7800D01*
G01X29949Y7800D02*
G01X29639Y7369D01*
G01X30104D01*
G01X29949Y7800D02*
G01X29949Y7150D01*
G04 //text: USB*
G01X36144Y16055D02*
G01X36144Y15591D01*
G01X36175Y15499D01*
G01X36238Y15436D01*
G01X36330Y15405D01*
G01X36393D01*
G01X36485Y15436D01*
G01X36546Y15499D01*
G01X36579Y15591D01*
G01Y16055D01*
G01X37313Y15964D02*
G01X37249Y16025D01*
G01X37158Y16055D01*
G01X37033D01*
G01X36942Y16025D01*
G01X36878Y15964D01*
G01Y15900D01*
G01X36909Y15839D01*
G01X36942Y15809D01*
G01X37003Y15778D01*
G01X37188Y15715D01*
G01X37249Y15685D01*
G01X37282Y15654D01*
G01X37313Y15591D01*
G01Y15499D01*
G01X37249Y15436D01*
G01X37158Y15405D01*
G01X37033D01*
G01X36942Y15436D01*
G01X36878Y15499D01*
G01X37612Y16055D02*
G01X37612Y15405D01*
G01X37612Y16055D02*
G01X37892Y16055D01*
G01X37986Y16025D01*
G01X38016Y15994D01*
G01X38047Y15931D01*
G01Y15870D01*
G01X38016Y15809D01*
G01X37986Y15778D01*
G01X37892Y15745D01*
G01X37612Y15745D02*
G01X37892Y15745D01*
G01X37986Y15715D01*
G01X38016Y15685D01*
G01X38047Y15624D01*
G01Y15530D01*
G01X38016Y15469D01*
G01X37986Y15436D01*
G01X37892Y15405D01*
G01X37612D01*
G04 //text: R3*
G01X26746Y17960D02*
G01X26746Y17310D01*
G01X26746Y17960D02*
G01X27026Y17960D01*
G01X27117Y17930D01*
G01X27148Y17899D01*
G01X27181Y17836D01*
G01Y17775D01*
G01X27148Y17714D01*
G01X27117Y17683D01*
G01X27026Y17650D01*
G01X26746D01*
G01X26962Y17650D02*
G01X27181Y17310D01*
G01X27544Y17960D02*
G01X27884Y17960D01*
G01X27696Y17714D01*
G01X27790D01*
G01X27851Y17683D01*
G01X27884Y17650D01*
G01X27915Y17559D01*
G01Y17496D01*
G01X27884Y17404D01*
G01X27821Y17341D01*
G01X27729Y17310D01*
G01X27635D01*
G01X27544Y17341D01*
G01X27511Y17374D01*
G01X27480Y17435D01*
G04 //text: R6*
G01X26746Y19357D02*
G01X26746Y18707D01*
G01X26746Y19357D02*
G01X27026Y19357D01*
G01X27117Y19327D01*
G01X27148Y19296D01*
G01X27181Y19233D01*
G01Y19172D01*
G01X27148Y19111D01*
G01X27117Y19080D01*
G01X27026Y19047D01*
G01X26746D01*
G01X26962Y19047D02*
G01X27181Y18707D01*
G01X27851Y19266D02*
G01X27821Y19327D01*
G01X27729Y19357D01*
G01X27666D01*
G01X27574Y19327D01*
G01X27511Y19233D01*
G01X27480Y19080D01*
G01Y18926D01*
G01X27511Y18801D01*
G01X27574Y18738D01*
G01X27666Y18707D01*
G01X27696D01*
G01X27790Y18738D01*
G01X27851Y18801D01*
G01X27884Y18893D01*
G01Y18926D01*
G01X27851Y19017D01*
G01X27790Y19080D01*
G01X27696Y19111D01*
G01X27666D01*
G01X27574Y19080D01*
G01X27511Y19017D01*
G01X27480Y18926D01*
G04 //text: R5*
G01X26746Y20881D02*
G01X26746Y20231D01*
G01X26746Y20881D02*
G01X27026Y20881D01*
G01X27117Y20851D01*
G01X27148Y20820D01*
G01X27181Y20757D01*
G01Y20696D01*
G01X27148Y20635D01*
G01X27117Y20604D01*
G01X27026Y20571D01*
G01X26746D01*
G01X26962Y20571D02*
G01X27181Y20231D01*
G01X27851Y20881D02*
G01X27544Y20881D01*
G01X27511Y20604D01*
G01X27544Y20635D01*
G01X27635Y20665D01*
G01X27729D01*
G01X27821Y20635D01*
G01X27884Y20571D01*
G01X27915Y20480D01*
G01Y20417D01*
G01X27884Y20325D01*
G01X27821Y20262D01*
G01X27729Y20231D01*
G01X27635D01*
G01X27544Y20262D01*
G01X27511Y20295D01*
G01X27480Y20356D01*
G04 //text: R7*
G01X26746Y22278D02*
G01X26746Y21628D01*
G01X26746Y22278D02*
G01X27026Y22278D01*
G01X27117Y22248D01*
G01X27148Y22217D01*
G01X27181Y22154D01*
G01Y22093D01*
G01X27148Y22032D01*
G01X27117Y22001D01*
G01X27026Y21968D01*
G01X26746D01*
G01X26962Y21968D02*
G01X27181Y21628D01*
G01X27915Y22278D02*
G01X27605Y21628D01*
G01X27480Y22278D02*
G01X27915Y22278D01*
G04 //text: U1*
G01X16840Y14658D02*
G01X16840Y14194D01*
G01X16871Y14102D01*
G01X16934Y14039D01*
G01X17026Y14008D01*
G01X17089D01*
G01X17181Y14039D01*
G01X17242Y14102D01*
G01X17275Y14194D01*
G01Y14658D01*
G01X17574Y14534D02*
G01X17638Y14567D01*
G01X17729Y14658D01*
G01Y14008D01*
G04 //text: R2*
G01X33604Y23548D02*
G01X33604Y22898D01*
G01X33604Y23548D02*
G01X33884Y23548D01*
G01X33975Y23518D01*
G01X34006Y23487D01*
G01X34039Y23424D01*
G01Y23363D01*
G01X34006Y23302D01*
G01X33975Y23271D01*
G01X33884Y23238D01*
G01X33604D01*
G01X33820Y23238D02*
G01X34039Y22898D01*
G01X34369Y23393D02*
G01X34369Y23424D01*
G01X34402Y23487D01*
G01X34432Y23518D01*
G01X34493Y23548D01*
G01X34618D01*
G01X34679Y23518D01*
G01X34709Y23487D01*
G01X34742Y23424D01*
G01Y23363D01*
G01X34709Y23302D01*
G01X34648Y23208D01*
G01X34338Y22898D01*
G01X34773D01*
G04 Text End*

G04 PolygonModel Start*
G54D11*
G01X10617Y7038D02*
G01X10479Y7038D01*
G01X12617Y7038D02*
G01X12479Y7038D01*
G01X14616Y7038D02*
G01X14479Y7038D01*
G01X16616Y7038D02*
G01X16479Y7038D01*
G01X18616Y7038D02*
G01X18479Y7038D01*
G01X20616Y7038D02*
G01X20479Y7038D01*
G01X22616Y7038D02*
G01X22479Y7038D01*
G01X25045Y9108D02*
G01X25045Y7038D01*
G01X25045Y7038D02*
G01X24479Y7038D01*
G01X25045Y11106D02*
G01X25045Y10970D01*
G01X25045Y13105D02*
G01X25045Y12968D01*
G01X25045Y15106D02*
G01X25045Y14967D01*
G01X25045Y17105D02*
G01X25045Y16968D01*
G01X25045Y19105D02*
G01X25045Y18967D01*
G01X24479Y23038D02*
G01X25045Y23038D01*
G01X25045Y23038D02*
G01X25045Y20967D01*
G01X22479Y23038D02*
G01X22616Y23038D01*
G01X20479Y23038D02*
G01X20616Y23038D01*
G01X18479Y23038D02*
G01X18616Y23038D01*
G01X16479Y23038D02*
G01X16616Y23038D01*
G01X14479Y23038D02*
G01X14616Y23038D01*
G01X12479Y23038D02*
G01X12617Y23038D01*
G01X10479Y23038D02*
G01X10617Y23038D01*
G01X8617Y7038D02*
G01X1047Y7038D01*
G01X1047Y23038D02*
G01X8617Y23038D01*
G01X7047Y20038D02*
G01X7047Y10038D01*
G01X7047Y10038D02*
G01X2047Y10038D01*
G01X2047Y10038D02*
G01X2047Y11038D01*
G01X2047Y11038D02*
G01X5047Y11038D01*
G01X5047Y11038D02*
G01X5047Y12038D01*
G01X5047Y12038D02*
G01X2047Y12038D01*
G01X2047Y12038D02*
G01X2047Y13038D01*
G01X2047Y13038D02*
G01X5047Y13038D01*
G01X5047Y13038D02*
G01X5047Y14038D01*
G01X5047Y14038D02*
G01X2047Y14038D01*
G01X2047Y14038D02*
G01X2047Y15038D01*
G01X2047Y15038D02*
G01X5047Y15038D01*
G01X5047Y15038D02*
G01X5047Y16038D01*
G01X5047Y16038D02*
G01X2047Y16038D01*
G01X2047Y16038D02*
G01X2047Y22038D01*
G01X10047Y9038D02*
G01X23047Y9038D01*
G01X23047Y9038D02*
G01X23047Y21038D01*
G01X23047Y21038D02*
G01X10047Y21038D01*
G01X10047Y21038D02*
G01X10047Y9038D01*
G01X8047Y8038D02*
G01X8047Y22038D01*
G01X1047Y7038D02*
G01X1047Y23038D01*
G01X37864Y16637D02*
G01X35578Y16637D01*
G01X35578Y16637D02*
G01X35578Y19685D01*
G01X35578Y19685D02*
G01X37864Y19685D01*
G01X38880Y19685D02*
G01X41166Y19685D01*
G01X41166Y19685D02*
G01X41166Y16637D01*
G01X41166Y16637D02*
G01X38880Y16637D01*
G54D12*
G01X37579Y22941D02*
G01X36927Y22941D01*
G01X36927Y22941D02*
G01X36927Y19963D01*
G01X36927Y19963D02*
G01X39527Y19963D01*
G01X39527Y19963D02*
G01X39527Y22941D01*
G01X39527Y22941D02*
G01X38875Y22941D01*
G01X38875Y22941D02*
G02X37579Y22941I-648J0D01*
G54D10*
G01X33629Y20656D02*
G01X33629Y19697D01*
G01X33629Y19697D02*
G01X34951Y19697D01*
G01X34951Y19697D02*
G01X34951Y20656D01*
G01X33629Y21508D02*
G01X33629Y22467D01*
G01X33629Y22467D02*
G01X34951Y22467D01*
G01X34951Y22467D02*
G01X34951Y21508D01*
G01X30354Y6505D02*
G01X30354Y13307D01*
G01X30354Y13307D02*
G01X33146Y13307D01*
G01X33146Y13307D02*
G01X33146Y6505D01*
G01X33146Y6505D02*
G01X30354Y6505D01*
G54D11*
G01X27070Y8327D02*
G01X26270Y8327D01*
G01X27380Y9437D02*
G01X27380Y8637D01*
G01X25960Y9437D02*
G01X25960Y8637D01*
G01X27385Y10013D02*
G01X27385Y10813D01*
G01X27076Y11122D02*
G01X26276Y11122D01*
G01X25966Y10013D02*
G01X25966Y10813D01*
G01X27076Y11123D02*
G02X27385Y10813I0J-310D01*
G01X25966Y10813D02*
G02X26276Y11123I310J0D01*
G01X27380Y8637D02*
G02X27070Y8327I-310J-0D01*
G01X26270Y8327D02*
G02X25960Y8637I0J310D01*
G54D10*
G01X31694Y16387D02*
G01X31694Y13585D01*
G01X29854Y16387D02*
G01X35306Y16387D01*
G01X29854Y13585D02*
G01X35306Y13585D01*
G01X35306Y16387D02*
G01X35306Y15986D01*
G01X35306Y13585D02*
G01X35306Y13986D01*
G36*
G01X29930Y16463D02*
G01X29930Y15935D01*
G01X29473D01*
G01Y16463D01*
G01X29930D01*
G37*
G54D13*
G01X29930Y16463D02*
G01X29930Y15935D01*
G01X29473D01*
G01Y16463D01*
G01X29930D01*
G36*
G01X29930Y13509D02*
G01X29930Y14037D01*
G01X29473D01*
G01Y13509D01*
G01X29930D01*
G37*
G01X29930Y13509D02*
G01X29930Y14037D01*
G01X29473D01*
G01Y13509D01*
G01X29930D01*
G54D14*
G01X38749Y14971D02*
G01X39249Y14971D01*
G01X36999Y12573D02*
G01X36999Y12873D01*
G01X38749Y6873D02*
G01X39199Y6873D01*
G01X36999Y9022D02*
G01X36999Y9322D01*
G01X41949Y6873D02*
G01X42750Y6873D01*
G01X42750Y6873D02*
G01X42750Y7371D01*
G01X42750Y14521D02*
G01X42750Y14971D01*
G01X42750Y14971D02*
G01X41899Y14971D01*
G54D11*
G01X34817Y16644D02*
G01X34017Y16644D01*
G01X35127Y17754D02*
G01X35127Y16954D01*
G01X33707Y17754D02*
G01X33707Y16954D01*
G01X35132Y18330D02*
G01X35132Y19130D01*
G01X34823Y19439D02*
G01X34023Y19439D01*
G01X33713Y18330D02*
G01X33713Y19130D01*
G01X34823Y19440D02*
G02X35132Y19130I0J-310D01*
G01X33713Y19130D02*
G02X34023Y19440I310J0D01*
G01X35127Y16954D02*
G02X34817Y16644I-310J-0D01*
G01X34017Y16644D02*
G02X33707Y16954I0J310D01*
G54D10*
G01X29673Y18060D02*
G01X28714Y18060D01*
G01X28714Y18060D02*
G01X28714Y16738D01*
G01X28714Y16738D02*
G01X29673Y16738D01*
G01X30525Y18060D02*
G01X31484Y18060D01*
G01X31484Y18060D02*
G01X31484Y16738D01*
G01X31484Y16738D02*
G01X30525Y16738D01*
G01X27387Y13234D02*
G01X26428Y13234D01*
G01X26428Y13234D02*
G01X26428Y11912D01*
G01X26428Y11912D02*
G01X27387Y11912D01*
G01X28239Y13234D02*
G01X29198Y13234D01*
G01X29198Y13234D02*
G01X29198Y11912D01*
G01X29198Y11912D02*
G01X28239Y11912D01*
G01X29673Y21108D02*
G01X28714Y21108D01*
G01X28714Y21108D02*
G01X28714Y19786D01*
G01X28714Y19786D02*
G01X29673Y19786D01*
G01X30525Y21108D02*
G01X31484Y21108D01*
G01X31484Y21108D02*
G01X31484Y19786D01*
G01X31484Y19786D02*
G01X30525Y19786D01*
G01X29673Y19584D02*
G01X28714Y19584D01*
G01X28714Y19584D02*
G01X28714Y18262D01*
G01X28714Y18262D02*
G01X29673Y18262D01*
G01X30525Y19584D02*
G01X31484Y19584D01*
G01X31484Y19584D02*
G01X31484Y18262D01*
G01X31484Y18262D02*
G01X30525Y18262D01*
G01X29673Y22632D02*
G01X28714Y22632D01*
G01X28714Y22632D02*
G01X28714Y21310D01*
G01X28714Y21310D02*
G01X29673Y21310D01*
G01X30525Y22632D02*
G01X31484Y22632D01*
G01X31484Y22632D02*
G01X31484Y21310D01*
G01X31484Y21310D02*
G01X30525Y21310D01*
G54D11*
G01X29203Y14751D02*
G01X29203Y13951D01*
G01X28093Y15061D02*
G01X28893Y15061D01*
G01X28093Y13641D02*
G01X28893Y13641D01*
G01X27517Y15066D02*
G01X26717Y15066D01*
G01X26408Y14757D02*
G01X26408Y13957D01*
G01X27517Y13647D02*
G01X26717Y13647D01*
G01X26407Y14757D02*
G02X26717Y15066I310J0D01*
G01X26717Y13647D02*
G02X26407Y13957I-0J310D01*
G01X28893Y15061D02*
G02X29203Y14751I0J-310D01*
G01X29203Y13951D02*
G02X28893Y13641I-310J0D01*
G54D12*
G01X39785Y5149D02*
G01X39795Y5149D01*
G01X39795Y5149D02*
G01X40125Y4819D01*
G01X39785Y4469D02*
G01X39785Y4479D01*
G01X39785Y4479D02*
G01X40125Y4819D01*
G01X39785Y4469D02*
G01X39785Y5149D01*
G01X39765Y4069D02*
G01X38615Y4069D01*
G01X39765Y5570D02*
G01X38615Y5570D01*
G01X38615Y4069D02*
G01X38615Y5549D01*
G01X40145Y5572D02*
G01X41195Y5572D01*
G01X41495Y5172D02*
G01X41495Y5272D01*
G01X41495Y5272D02*
G01X41195Y5572D01*
G01X41495Y4472D02*
G01X41495Y5172D01*
G01X41495Y4472D02*
G01X41495Y4372D01*
G01X41495Y4372D02*
G01X41195Y4072D01*
G01X40145Y4072D02*
G01X41195Y4072D01*
G01X39785Y4819D02*
G01X40125Y4819D01*
G54D10*
G01X27477Y6578D02*
G01X28436Y6578D01*
G01X28436Y6578D02*
G01X28436Y7900D01*
G01X28436Y7900D02*
G01X27477Y7900D01*
G01X26625Y6578D02*
G01X25666Y6578D01*
G01X25666Y6578D02*
G01X25666Y7900D01*
G01X25666Y7900D02*
G01X26625Y7900D01*
G54D12*
G01X32189Y20989D02*
G01X32189Y20999D01*
G01X32189Y20999D02*
G01X32519Y21329D01*
G01X32869Y20989D02*
G01X32859Y20989D01*
G01X32859Y20989D02*
G01X32519Y21329D01*
G01X32869Y20989D02*
G01X32189Y20989D01*
G01X33269Y20969D02*
G01X33269Y19819D01*
G01X31768Y20969D02*
G01X31768Y19819D01*
G01X33269Y19819D02*
G01X31789Y19819D01*
G01X31766Y21349D02*
G01X31766Y22399D01*
G01X32166Y22699D02*
G01X32066Y22699D01*
G01X32066Y22699D02*
G01X31766Y22399D01*
G01X32866Y22699D02*
G01X32166Y22699D01*
G01X32866Y22699D02*
G01X32966Y22699D01*
G01X32966Y22699D02*
G01X33266Y22399D01*
G01X33266Y21349D02*
G01X33266Y22399D01*
G01X32519Y20989D02*
G01X32519Y21329D01*
G54D10*
G01X31851Y17608D02*
G01X31851Y16649D01*
G01X31851Y16649D02*
G01X33173Y16649D01*
G01X33173Y16649D02*
G01X33173Y17608D01*
G01X31851Y18460D02*
G01X31851Y19419D01*
G01X31851Y19419D02*
G01X33173Y19419D01*
G01X33173Y19419D02*
G01X33173Y18460D01*
G01X28239Y15341D02*
G01X29198Y15341D01*
G01X29198Y15341D02*
G01X29198Y16663D01*
G01X29198Y16663D02*
G01X28239Y16663D01*
G01X27387Y15341D02*
G01X26428Y15341D01*
G01X26428Y15341D02*
G01X26428Y16663D01*
G01X26428Y16663D02*
G01X27387Y16663D01*
G04 PolygonModel End*

G04 Circle Start*
G54D11*
G01X7770Y6403D02*
G03X8338Y6403I284J0D01*
G03X7770I-284J0D01*
G54D16*
G01X35907Y23113D02*
G03X36147Y23113I120J0D01*
G03X35907I-120J0D01*
G04 Circle End*

M02*
