G04 Layer: TopLayer*
G04 EasyEDA Pro v1.7.31, 2022-10-01 17:20:27*
G04 Gerber Generator version 0.3*
G04 Scale: 100 percent, Rotated: No, Reflected: No*
G04 Dimensions in millimeters*
G04 Leading zeros omitted, absolute positions, 3 integers and 3 decimals*
%FSLAX33Y33*%
%MOMM*%
%ADD999C,0.2032*%
%ADD10C,1.524*%
%ADD11C,0.610001*%
%ADD12C,0.254*%
%ADD13C,0.635*%
%ADD14C,0.3856*%
%ADD15C,0.381*%
G75*


G04 Copper Start*
G36*
G01X41679Y3988D02*
G02X41097Y3406I-582J0D01*
G01X9754D01*
G01Y3584D01*
G03X10772Y4699I-102J1115D01*
G03X10137Y5709I-1120J0D01*
G01Y5880D01*
G01X10248D01*
G03X10548Y6042I0J358D01*
G03X10848Y5880I300J196D01*
G01X12248D01*
G03X12548Y6042I0J358D01*
G03X12848Y5880I300J196D01*
G01X13554D01*
G01X14086Y5680D01*
G01X13886Y5434D01*
G03X13612Y4699I846J-735D01*
G03X14732Y3579I1120J0D01*
G03X15852Y4699I0J1120D01*
G03X15578Y5434I-1120J0D01*
G01X15217Y5880D01*
G01X16248D01*
G03X16548Y6042I0J358D01*
G03X16848Y5880I300J196D01*
G01X18248D01*
G03X18548Y6042I0J358D01*
G03X18848Y5880I300J196D01*
G01X20248D01*
G03X20548Y6042I0J358D01*
G03X20848Y5880I300J196D01*
G01X22248D01*
G03X22548Y6042I0J358D01*
G03X22685Y5919I300J196D01*
G01X22917Y5801D01*
G03X23070Y5566I631J242D01*
G01X23459Y5177D01*
G01X23782Y4548D01*
G03X24892Y3579I1110J151D01*
G03X26012Y4699I0J1120D01*
G03X25043Y5809I-1120J0D01*
G01X24557Y6059D01*
G03X24584Y6116I-310J180D01*
G01X25231Y7892D01*
G01X25426Y8087D01*
G01X26543D01*
G03X26912Y8197I0J676D01*
G01X27233Y7987D01*
G03X27051Y7746I168J-316D01*
G03X26701Y8029I-350J-75D01*
G01X25894D01*
G03X25536Y7671I0J-358D01*
G01Y6807D01*
G03X25604Y6597I358J0D01*
G01X25812Y6310D01*
G01Y5833D01*
G03X25955Y5490I485J0D01*
G01X26107Y5338D01*
G01X26317Y4587D01*
G03X27432Y3579I1115J112D01*
G03X28552Y4699I0J1120D01*
G03X27544Y5814I-1120J0D01*
G01X26793Y6024D01*
G01X26783Y6034D01*
G01Y6310D01*
G01X26991Y6597D01*
G03X27051Y6732I-290J210D01*
G03X27130Y6574I350J75D01*
G01X27349Y6318D01*
G03X27461Y6143I455J167D01*
G01X27597Y6007D01*
G03X27940Y5865I343J343D01*
G01X37772D01*
G01X37847Y5790D01*
G03X37592Y5819I-255J-1091D01*
G03X36472Y4699I0J-1120D01*
G03X37592Y3579I1120J0D01*
G03X38570Y4153I0J1120D01*
G03X38805Y4064I236J270D01*
G01X39605D01*
G03X39964Y4423I0J358D01*
G01Y5223D01*
G03X39753Y5549I-358J0D01*
G01X39218Y5791D01*
G01X38316Y6693D01*
G03X37973Y6835I-343J-343D01*
G01X28566D01*
G01Y7671D01*
G03X28549Y7778I-358J0D01*
G01X30125D01*
G03X30483Y8136I0J358D01*
G01Y11676D01*
G03X30125Y12034I-358J0D01*
G01X29872D01*
G03X30132Y12473I-408J539D01*
G01X30877Y11728D01*
G03X31355Y11530I478J478D01*
G01X32807D01*
G01X33237Y11351D01*
G03X33375Y11323I138J330D01*
G01X35840D01*
G03X36198Y11681I0J358D01*
G01Y12731D01*
G03X35840Y13089I-358J0D01*
G01X33375D01*
G03X33237Y13061I0J-358D01*
G01X32807Y12882D01*
G01X31635D01*
G01X31255Y13261D01*
G01X31771Y13981D01*
G01X32212Y14597D01*
G03X32482Y14762I-208J643D01*
G01X32990Y15270D01*
G03X33188Y15748I-478J478D01*
G01Y15903D01*
G01X33265Y16547D01*
G01X33683Y16584D01*
G01X33956Y16576D01*
G01X33967D01*
G01X34867D01*
G03X35225Y16934I0J358D01*
G01Y17404D01*
G03X35433Y17371I208J630D01*
G03X35472Y17372I0J663D01*
G01Y16865D01*
G03X35830Y16507I358J0D01*
G01X37830D01*
G03X38188Y16865I0J358D01*
G01Y19457D01*
G03X37830Y19815I-358J0D01*
G01X35842D01*
G03X35214Y20360I-663J-130D01*
G01X35080Y20494D01*
G01Y20609D01*
G03X35229Y20577I148J326D01*
G01X36626D01*
G03X36984Y20935I0J358D01*
G01Y21341D01*
G03X36962Y21463I-358J0D01*
G03X36977Y21518I-337J122D01*
G01X37351Y21145D01*
G01X37450Y20953D01*
G03X38100Y20419I650J129D01*
G03X38567Y20612I0J663D01*
G01Y19545D01*
G03X38556Y19457I347J-88D01*
G01Y16865D01*
G03X38915Y16507I358J0D01*
G01X40915D01*
G03X41273Y16865I0J358D01*
G01Y19457D01*
G03X40915Y19815I-358J0D01*
G01X39919D01*
G01Y19927D01*
G01X41225D01*
G03X41584Y20285I0J358D01*
G01Y20691D01*
G03X41562Y20813I-358J0D01*
G03X41584Y20935I-337J122D01*
G01Y21341D01*
G03X41562Y21463I-358J0D01*
G03X41584Y21585I-337J122D01*
G01Y21991D01*
G03X41562Y22113I-358J0D01*
G03X41584Y22235I-337J122D01*
G01Y22641D01*
G03X41225Y22999I-358J0D01*
G01X40660D01*
G03X40486Y23028I-174J-520D01*
G01X39783D01*
G01X39606Y23049D01*
G03X39243Y23155I-363J-570D01*
G03X38567Y22479I0J-676D01*
G01Y21552D01*
G03X38229Y21732I-467J-470D01*
G01X38037Y21831D01*
G01X37087Y22781D01*
G01X37071Y22796D01*
G01X37935Y23660D01*
G03X38047Y23834I-343J343D01*
G01X38433Y24279D01*
G03X38712Y25019I-841J740D01*
G03X37592Y26139I-1120J0D01*
G03X36472Y25019I0J-1120D01*
G03X36751Y24279I1120J0D01*
G01X36951Y24048D01*
G01X36137Y23234D01*
G01X35146Y22990D01*
G01X34840Y22920D01*
G03X34592Y22819I53J-482D01*
G01X34000Y22597D01*
G01X33858D01*
G03X33500Y22239I0J-358D01*
G01Y21432D01*
G03X33783Y21082I358J0D01*
G03X33500Y20732I75J-350D01*
G01Y19925D01*
G03X33686Y19611I358J0D01*
G01X34501Y19166D01*
G03X34934Y19009I433J519D01*
G01X35179D01*
G03X35472Y19076I0J676D01*
G01Y18696D01*
G03X35433Y18697I-39J-662D01*
G03X34772Y18092I0J-663D01*
G01X33967D01*
G03X33916Y18089I0J-358D01*
G01X33346Y18007D01*
G01X33028Y18036D01*
G03X33302Y18384I-84J348D01*
G01Y19191D01*
G03X33224Y19414I-358J0D01*
G01X33068Y19609D01*
G01X33205Y19799D01*
G03X33274Y20009I-290J210D01*
G01Y20809D01*
G03X32915Y21168I-358J0D01*
G01X32115D01*
G03X31757Y20809I0J-358D01*
G01Y20320D01*
G03X31614Y20365I-273J-618D01*
G01Y20879D01*
G03X31256Y21237I-358J0D01*
G01X30449D01*
G03X30099Y20954I0J-358D01*
G03X29888Y21209I-350J-75D01*
G03X30107Y21539I-139J330D01*
G01Y22403D01*
G03X29749Y22761I-358J0D01*
G01X28942D01*
G03X28719Y22683I0J-358D01*
G01X28627Y22609D01*
G03X28448Y22634I-179J-638D01*
G03X28398Y22632I0J-663D01*
G01X29416Y23650D01*
G01X30203Y23923D01*
G03X31092Y25019I-231J1096D01*
G03X29972Y26139I-1120J0D01*
G03X28852Y25019I0J-1120D01*
G01Y25011D01*
G01X28693Y24299D01*
G01X27216Y22822D01*
G03X27074Y22479I343J-343D01*
G01Y18362D01*
G01X26078Y17366D01*
G01X26287Y18108D01*
G01X26759Y18580D01*
G03X26901Y18923I-343J343D01*
G01Y23724D01*
G01X27544Y23904D01*
G03X28552Y25019I-112J1115D01*
G03X27432Y26139I-1120J0D01*
G03X26317Y25131I0J-1120D01*
G01X26107Y24380D01*
G01X26073Y24346D01*
G03X25931Y24003I343J-343D01*
G01Y21008D01*
G03X25699Y21094I-232J-273D01*
G01X25504D01*
G01X25377Y21247D01*
G01Y23630D01*
G01X25759Y24310D01*
G03X26012Y25019I-867J709D01*
G03X24892Y26139I-1120J0D01*
G03X23772Y25019I0J-1120D01*
G03X24025Y24310I1120J0D01*
G01X24407Y23630D01*
G01Y21247D01*
G01X24280Y21094D01*
G01X23999D01*
G03X23640Y20736I0J-358D01*
G01Y19336D01*
G03X23803Y19036I358J0D01*
G03X23640Y18736I195J-300D01*
G01Y17336D01*
G03X23802Y17036I358J0D01*
G03X23640Y16737I196J-300D01*
G01Y15337D01*
G03X23803Y15036I358J0D01*
G03X23640Y14736I195J-300D01*
G01Y14582D01*
G01X23487Y14455D01*
G01X21664D01*
G01X21567Y14552D01*
G01Y19063D01*
G03X21885Y19313I-231J622D01*
G01X21956Y19175D01*
G03X22606Y18641I650J129D01*
G03X23269Y19304I0J663D01*
G03X22735Y19954I-663J0D01*
G01X22710Y19967D01*
G01Y20955D01*
G03X22637Y21211I-485J0D01*
G01X22606Y21576D01*
G01Y23839D01*
G03X22595Y23926I-358J0D01*
G03X23472Y25019I-243J1093D01*
G03X22352Y26139I-1120J0D01*
G03X21232Y25019I0J-1120D01*
G03X21590Y24198I1120J0D01*
G01X20848D01*
G03X20548Y24036I0J-358D01*
G03X20476Y24117I-300J-195D01*
G03X20932Y25019I-664J902D01*
G03X19812Y26139I-1120J0D01*
G03X18692Y25019I0J-1120D01*
G03X19049Y24199I1120J0D01*
G01X18848D01*
G03X18547Y24036I0J-358D01*
G03X18248Y24198I-300J-196D01*
G01X18034D01*
G03X18392Y25019I-762J821D01*
G03X17272Y26139I-1120J0D01*
G03X16152Y25019I0J-1120D01*
G03X16615Y24112I1120J0D01*
G03X16547Y24035I233J-272D01*
G03X16248Y24197I-300J-196D01*
G01X16155D01*
G01X16002Y24372D01*
G03X15976Y24431I-455J-169D01*
G01X15848Y25113D01*
G03X14732Y26139I-1116J-94D01*
G03X13612Y25019I0J-1120D01*
G03X13856Y24321I1120J0D01*
G01X13506Y24418D01*
G01X13307Y25131D01*
G03X12192Y26139I-1115J-112D01*
G03X11072Y25019I0J-1120D01*
G03X11430Y24198I1120J0D01*
G01X10848D01*
G03X10548Y24035I0J-358D01*
G03X10248Y24198I-300J-195D01*
G01X9754D01*
G01Y26185D01*
G01X41097D01*
G02X41679Y25603I0J-582D01*
G01Y3988D01*
G37*
%LPC*%
G36*
G01X35834Y9023D02*
G03X36449Y8608I615J248D01*
G03X37079Y9063I0J663D01*
G01X38050D01*
G03X38408Y9422I0J358D01*
G01Y9822D01*
G03X38385Y9947I-358J0D01*
G03X38408Y10072I-336J125D01*
G01Y10472D01*
G03X38385Y10597I-358J0D01*
G03X38408Y10722I-336J125D01*
G01Y11122D01*
G03X38385Y11247I-358J0D01*
G03X38408Y11372I-336J125D01*
G01Y11772D01*
G03X38050Y12130I-358J0D01*
G01X36700D01*
G03X36342Y11772I0J-358D01*
G01Y11372D01*
G03X36364Y11247I358J0D01*
G03X36342Y11122I336J-125D01*
G01Y10722D01*
G03X36364Y10597I358J0D01*
G03X36342Y10472I336J-125D01*
G01Y10072D01*
G03X36360Y9959I358J0D01*
G01X36339Y9929D01*
G01X36324Y9922D01*
G03X36198Y9885I125J-651D01*
G01Y10431D01*
G03X35840Y10789I-358J0D01*
G01X33375D01*
G03X33017Y10431I0J-358D01*
G01Y9381D01*
G03X33375Y9023I358J0D01*
G01X35834D01*
G37*
G36*
G01X35680Y13831D02*
G03X36038Y14189I0J358D01*
G01Y14342D01*
G03X36195Y14323I157J644D01*
G03X36858Y14986I0J663D01*
G03X36195Y15649I-663J0D01*
G03X36038Y15630I0J-663D01*
G01Y15783D01*
G03X35680Y16141I-358J0D01*
G01X33680D01*
G03X33322Y15783I0J-358D01*
G01Y14189D01*
G03X33680Y13831I358J0D01*
G01X35680D01*
G37*
G36*
G01X31392Y4699D02*
G03X32512Y3579I1120J0D01*
G03X33632Y4699I0J1120D01*
G03X32512Y5819I-1120J0D01*
G03X31392Y4699I0J-1120D01*
G37*
G36*
G01X12192Y3579D02*
G03X13312Y4699I0J1120D01*
G03X12192Y5819I-1120J0D01*
G03X11072Y4699I0J-1120D01*
G03X12192Y3579I1120J0D01*
G37*
G36*
G01X16152Y4699D02*
G03X17272Y3579I1120J0D01*
G03X18392Y4699I0J1120D01*
G03X17272Y5819I-1120J0D01*
G03X16152Y4699I0J-1120D01*
G37*
G36*
G01X33932Y4699D02*
G03X35052Y3579I1120J0D01*
G03X36172Y4699I0J1120D01*
G03X35052Y5819I-1120J0D01*
G03X33932Y4699I0J-1120D01*
G37*
G36*
G01X21232Y4699D02*
G03X22352Y3579I1120J0D01*
G03X23472Y4699I0J1120D01*
G03X22352Y5819I-1120J0D01*
G03X21232Y4699I0J-1120D01*
G37*
G36*
G01X18692Y4699D02*
G03X19812Y3579I1120J0D01*
G03X20932Y4699I0J1120D01*
G03X19812Y5819I-1120J0D01*
G03X18692Y4699I0J-1120D01*
G37*
G36*
G01X32512Y23899D02*
G03X33632Y25019I0J1120D01*
G03X32512Y26139I-1120J0D01*
G03X31392Y25019I0J-1120D01*
G03X32512Y23899I1120J0D01*
G37*
%LPD*%
G36*
G01X18766Y9086D02*
G03X18548Y8933I81J-349D01*
G03X18248Y9096I-300J-196D01*
G01X17757D01*
G01X17630Y9248D01*
G01Y9331D01*
G01X17696Y9538D01*
G03X17808Y9906I-551J368D01*
G03X17671Y10310I-663J0D01*
G01X17713D01*
G01X17920Y10244D01*
G03X18288Y10132I368J551D01*
G03X18951Y10795I0J663D01*
G03X18288Y11458I-663J0D01*
G03X17920Y11346I0J-663D01*
G01X17713Y11280D01*
G01X16764D01*
G03X16421Y11138I0J-485D01*
G01X15205Y9922D01*
G03X15062Y9579I343J-343D01*
G01Y9248D01*
G01X14935Y9096D01*
G01X14848D01*
G03X14548Y8933I0J-358D01*
G03X14248Y9096I-300J-196D01*
G01X13693D01*
G01X13566Y9248D01*
G01Y13642D01*
G01X14187Y14263D01*
G03X14478Y14196I291J596D01*
G03X15141Y14859I0J663D01*
G03X14562Y15517I-663J0D01*
G01X15681D01*
G01X15888Y15451D01*
G03X16256Y15339I368J551D01*
G03X16919Y16002I0J663D01*
G03X16256Y16665I-663J0D01*
G03X15888Y16553I0J-663D01*
G01X15681Y16487D01*
G01X14689D01*
G03X15268Y17145I-84J658D01*
G03X14605Y17808I-663J0D01*
G03X14237Y17696I0J-663D01*
G01X14030Y17630D01*
G01X12700D01*
G03X12357Y17488I0J-485D01*
G01X9754Y14885D01*
G01Y19698D01*
G03X10188Y20320I-229J622D01*
G03X10010Y20772I-663J0D01*
G01Y20982D01*
G01X10248D01*
G03X10548Y21144I0J358D01*
G03X10848Y20982I300J195D01*
G01X10945D01*
G01X11057Y20847D01*
G01X11006Y20688D01*
G03X10894Y20320I551J-368D01*
G03X11557Y19657I663J0D01*
G03X12220Y20320I0J663D01*
G03X12108Y20688I-663J0D01*
G01X12057Y20847D01*
G01X12169Y20982D01*
G01X12248D01*
G03X12548Y21144I0J358D01*
G03X12848Y20982I300J196D01*
G01X14248D01*
G03X14547Y21144I0J358D01*
G03X14848Y20981I300J195D01*
G01X15723D01*
G01X14785Y20043D01*
G01X13656D01*
G01X13449Y20109D01*
G03X13081Y20221I-368J-551D01*
G03X12418Y19558I0J-663D01*
G03X13081Y18895I663J0D01*
G03X13449Y19007I0J663D01*
G01X13656Y19073D01*
G01X14986D01*
G03X15106Y19088I0J485D01*
G03X15085Y18923I642J-165D01*
G03X15748Y18260I663J0D01*
G03X16411Y18923I0J663D01*
G03X16393Y19078I-663J0D01*
G01X16438Y19181D01*
G01X17473Y20216D01*
G01X18542D01*
G03X18885Y20358I0J485D01*
G01X19290Y20763D01*
G01X19875Y20983D01*
G01X20248D01*
G03X20547Y21144I0J358D01*
G03X20761Y20992I300J195D01*
G01X21740Y20748D01*
G01Y20211D01*
G03X21336Y20348I-404J-526D01*
G03X20677Y19758I0J-663D01*
G01X20657Y19665D01*
G03X20597Y19431I425J-234D01*
G01Y14351D01*
G03X20739Y14008I485J0D01*
G01X21120Y13627D01*
G03X21463Y13485I343J343D01*
G01X23487D01*
G01X23640Y13358D01*
G01Y13336D01*
G03X23801Y13037I358J0D01*
G03X23639Y12737I196J-300D01*
G01Y12677D01*
G01X23487Y12550D01*
G01X21156D01*
G01X20297Y13409D01*
G01Y18034D01*
G03X20155Y18377I-485J0D01*
G01X20043Y18489D01*
G01Y19237D01*
G01X20109Y19444D01*
G03X20221Y19812I-551J368D01*
G03X19558Y20475I-663J0D01*
G03X18895Y19812I0J-663D01*
G03X19007Y19444I663J0D01*
G01X19073Y19237D01*
G01Y18288D01*
G03X19215Y17945I485J0D01*
G01X19327Y17833D01*
G01Y13208D01*
G03X19469Y12865I485J0D01*
G01X20612Y11722D01*
G03X20955Y11580I343J343D01*
G01X23487D01*
G01X23639Y11453D01*
G01Y11337D01*
G03X23801Y11038I358J0D01*
G03X23641Y10739I198J-298D01*
G01Y10652D01*
G01X23027Y11265D01*
G03X22684Y11407I-343J-343D01*
G01X20140D01*
G01X19154Y12393D01*
G01Y17018D01*
G03X19012Y17361I-485J0D01*
G01X17791Y18582D01*
G01X17823Y18682D01*
G03X17935Y19050I-551J368D01*
G03X17272Y19713I-663J0D01*
G03X16609Y19050I0J-663D01*
G03X16721Y18682I663J0D01*
G01X16787Y18475D01*
G01Y18415D01*
G03X16929Y18072I485J0D01*
G01X18184Y16817D01*
G01Y12192D01*
G03X18326Y11849I485J0D01*
G01X19596Y10579D01*
G03X19939Y10437I343J343D01*
G01X22483D01*
G01X23224Y9696D01*
G03X23478Y9562I343J343D01*
G01X23641Y9427D01*
G01Y9339D01*
G03X23707Y9131I358J0D01*
G01X23518Y9097D01*
G01X22848D01*
G03X22547Y8934I0J-358D01*
G01X22537Y8948D01*
G01X22493Y9009D01*
G03X22507Y9144I-649J135D01*
G03X21844Y9807I-663J0D01*
G03X21360Y9597I0J-663D01*
G03X20701Y10188I-659J-72D01*
G03X20051Y9654I0J-663D01*
G01X19952Y9462D01*
G01X19823Y9333D01*
G01X18766Y9086D01*
G37*
G36*
G01X10564Y9153D02*
G01X10527Y8962D01*
G03X10248Y9096I-279J-225D01*
G01X10033D01*
G01Y13792D01*
G01X12901Y16660D01*
G01X14030D01*
G01X14237Y16594D01*
G03X14521Y16487I368J551D01*
G01X13462D01*
G03X13119Y16345I0J-485D01*
G01X10706Y13932D01*
G03X10564Y13589I343J-343D01*
G01Y9153D01*
G37*
G36*
G01X12596Y9168D02*
G01X12535Y8951D01*
G03X12248Y9096I-288J-213D01*
G01X11661D01*
G01X11534Y9248D01*
G01Y13388D01*
G01X13663Y15517D01*
G01X14394D01*
G03X14073Y15384I84J-658D01*
G01X13975Y15329D01*
G03X13754Y15202I122J-470D01*
G01X12738Y14186D01*
G03X12596Y13843I343J-343D01*
G01Y9168D01*
G37*
G36*
G01X27813Y13080D02*
G03X27772Y13186I-350J-75D01*
G01X27623Y13440D01*
G01X27804Y13692D01*
G03X27871Y13901I-291J209D01*
G01Y14801D01*
G03X27513Y15159I-358J0D01*
G01X26713D01*
G03X26444Y15038I0J-358D01*
G01X26404Y15004D01*
G03X26289Y15014I-115J-653D01*
G03X25990Y14943I0J-663D01*
G03X25893Y15036I-292J-207D01*
G03X26056Y15337I-195J300D01*
G01Y15381D01*
G03X26289Y15339I233J621D01*
G03X26368Y15344I0J663D01*
G01X26428Y15294D01*
G03X26656Y15212I229J276D01*
G01X27463D01*
G03X27821Y15570I0J358D01*
G01Y16434D01*
G03X27463Y16792I-358J0D01*
G01X26876D01*
G01X27902Y17818D01*
G03X28044Y18161I-343J343D01*
G01Y18397D01*
G03X28448Y18260I404J526D01*
G03X28627Y18285I0J663D01*
G01X28719Y18211D01*
G03X28803Y18161I224J280D01*
G03X28719Y18111I139J-330D01*
G01X28627Y18037D01*
G03X28448Y18062I-179J-638D01*
G03X27785Y17399I0J-663D01*
G03X28448Y16736I663J0D01*
G03X28627Y16761I0J663D01*
G01X28719Y16687D01*
G03X28942Y16609I224J280D01*
G01X29749D01*
G03X30099Y16892I0J358D01*
G03X30449Y16609I350J75D01*
G01X31256D01*
G03X31614Y16967I0J358D01*
G01Y17231D01*
G01X31623D01*
G03X31722Y17239I0J676D01*
G01Y16877D01*
G03X31724Y16835I358J0D01*
G01X31822Y16026D01*
G01X31621Y16112D01*
G03X31480Y16141I-141J-329D01*
G01X29480D01*
G03X29122Y15783I0J-358D01*
G01Y14189D01*
G03X29189Y13981I358J0D01*
G01X29764Y13178D01*
G03X29512Y13247I-300J-605D01*
G01X29050Y13354D01*
G03X28970Y13363I-81J-349D01*
G01X28163D01*
G03X27813Y13080I0J-358D01*
G37*
G36*
G01X26057Y9736D02*
G01X26057Y10739D01*
G03X25895Y11039I-358J0D01*
G03X26055Y11337I-198J298D01*
G01Y12737D01*
G03X25894Y13036I-358J0D01*
G03X26056Y13336I-196J300D01*
G01Y13730D01*
G03X26289Y13688I233J621D01*
G03X26404Y13698I0J663D01*
G01X26439Y13669D01*
G01X26585Y13464D01*
G01X26440Y13291D01*
G03X26298Y13005I216J-286D01*
G01Y12141D01*
G03X26656Y11783I358J0D01*
G01X27318D01*
G03X27302Y11676I342J-107D01*
G01Y10285D01*
G01X26747Y9775D01*
G01X26220D01*
G03X26057Y9736I0J-358D01*
G37*
G54D999*
G01X41679Y3988D02*
G02X41097Y3406I-582J0D01*
G01X9754D01*
G01Y3584D01*
G03X10772Y4699I-102J1115D01*
G03X10137Y5709I-1120J0D01*
G01Y5880D01*
G01X10248D01*
G03X10548Y6042I0J358D01*
G03X10848Y5880I300J196D01*
G01X12248D01*
G03X12548Y6042I0J358D01*
G03X12848Y5880I300J196D01*
G01X13554D01*
G01X14086Y5680D01*
G01X13886Y5434D01*
G03X13612Y4699I846J-735D01*
G03X14732Y3579I1120J0D01*
G03X15852Y4699I0J1120D01*
G03X15578Y5434I-1120J0D01*
G01X15217Y5880D01*
G01X16248D01*
G03X16548Y6042I0J358D01*
G03X16848Y5880I300J196D01*
G01X18248D01*
G03X18548Y6042I0J358D01*
G03X18848Y5880I300J196D01*
G01X20248D01*
G03X20548Y6042I0J358D01*
G03X20848Y5880I300J196D01*
G01X22248D01*
G03X22548Y6042I0J358D01*
G03X22685Y5919I300J196D01*
G01X22917Y5801D01*
G03X23070Y5566I631J242D01*
G01X23459Y5177D01*
G01X23782Y4548D01*
G03X24892Y3579I1110J151D01*
G03X26012Y4699I0J1120D01*
G03X25043Y5809I-1120J0D01*
G01X24557Y6059D01*
G03X24584Y6116I-310J180D01*
G01X25231Y7892D01*
G01X25426Y8087D01*
G01X26543D01*
G03X26912Y8197I0J676D01*
G01X27233Y7987D01*
G03X27051Y7746I168J-316D01*
G03X26701Y8029I-350J-75D01*
G01X25894D01*
G03X25536Y7671I0J-358D01*
G01Y6807D01*
G03X25604Y6597I358J0D01*
G01X25812Y6310D01*
G01Y5833D01*
G03X25955Y5490I485J0D01*
G01X26107Y5338D01*
G01X26317Y4587D01*
G03X27432Y3579I1115J112D01*
G03X28552Y4699I0J1120D01*
G03X27544Y5814I-1120J0D01*
G01X26793Y6024D01*
G01X26783Y6034D01*
G01Y6310D01*
G01X26991Y6597D01*
G03X27051Y6732I-290J210D01*
G03X27130Y6574I350J75D01*
G01X27349Y6318D01*
G03X27461Y6143I455J167D01*
G01X27597Y6007D01*
G03X27940Y5865I343J343D01*
G01X37772D01*
G01X37847Y5790D01*
G03X37592Y5819I-255J-1091D01*
G03X36472Y4699I0J-1120D01*
G03X37592Y3579I1120J0D01*
G03X38570Y4153I0J1120D01*
G03X38805Y4064I236J270D01*
G01X39605D01*
G03X39964Y4423I0J358D01*
G01Y5223D01*
G03X39753Y5549I-358J0D01*
G01X39218Y5791D01*
G01X38316Y6693D01*
G03X37973Y6835I-343J-343D01*
G01X28566D01*
G01Y7671D01*
G03X28549Y7778I-358J0D01*
G01X30125D01*
G03X30483Y8136I0J358D01*
G01Y11676D01*
G03X30125Y12034I-358J0D01*
G01X29872D01*
G03X30132Y12473I-408J539D01*
G01X30877Y11728D01*
G03X31355Y11530I478J478D01*
G01X32807D01*
G01X33237Y11351D01*
G03X33375Y11323I138J330D01*
G01X35840D01*
G03X36198Y11681I0J358D01*
G01Y12731D01*
G03X35840Y13089I-358J0D01*
G01X33375D01*
G03X33237Y13061I0J-358D01*
G01X32807Y12882D01*
G01X31635D01*
G01X31255Y13261D01*
G01X31771Y13981D01*
G01X32212Y14597D01*
G03X32482Y14762I-208J643D01*
G01X32990Y15270D01*
G03X33188Y15748I-478J478D01*
G01Y15903D01*
G01X33265Y16547D01*
G01X33683Y16584D01*
G01X33956Y16576D01*
G01X33967D01*
G01X34867D01*
G03X35225Y16934I0J358D01*
G01Y17404D01*
G03X35433Y17371I208J630D01*
G03X35472Y17372I0J663D01*
G01Y16865D01*
G03X35830Y16507I358J0D01*
G01X37830D01*
G03X38188Y16865I0J358D01*
G01Y19457D01*
G03X37830Y19815I-358J0D01*
G01X35842D01*
G03X35214Y20360I-663J-130D01*
G01X35080Y20494D01*
G01Y20609D01*
G03X35229Y20577I148J326D01*
G01X36626D01*
G03X36984Y20935I0J358D01*
G01Y21341D01*
G03X36962Y21463I-358J0D01*
G03X36977Y21518I-337J122D01*
G01X37351Y21145D01*
G01X37450Y20953D01*
G03X38100Y20419I650J129D01*
G03X38567Y20612I0J663D01*
G01Y19545D01*
G03X38556Y19457I347J-88D01*
G01Y16865D01*
G03X38915Y16507I358J0D01*
G01X40915D01*
G03X41273Y16865I0J358D01*
G01Y19457D01*
G03X40915Y19815I-358J0D01*
G01X39919D01*
G01Y19927D01*
G01X41225D01*
G03X41584Y20285I0J358D01*
G01Y20691D01*
G03X41562Y20813I-358J0D01*
G03X41584Y20935I-337J122D01*
G01Y21341D01*
G03X41562Y21463I-358J0D01*
G03X41584Y21585I-337J122D01*
G01Y21991D01*
G03X41562Y22113I-358J0D01*
G03X41584Y22235I-337J122D01*
G01Y22641D01*
G03X41225Y22999I-358J0D01*
G01X40660D01*
G03X40486Y23028I-174J-520D01*
G01X39783D01*
G01X39606Y23049D01*
G03X39243Y23155I-363J-570D01*
G03X38567Y22479I0J-676D01*
G01Y21552D01*
G03X38229Y21732I-467J-470D01*
G01X38037Y21831D01*
G01X37087Y22781D01*
G01X37071Y22796D01*
G01X37935Y23660D01*
G03X38047Y23834I-343J343D01*
G01X38433Y24279D01*
G03X38712Y25019I-841J740D01*
G03X37592Y26139I-1120J0D01*
G03X36472Y25019I0J-1120D01*
G03X36751Y24279I1120J0D01*
G01X36951Y24048D01*
G01X36137Y23234D01*
G01X35146Y22990D01*
G01X34840Y22920D01*
G03X34592Y22819I53J-482D01*
G01X34000Y22597D01*
G01X33858D01*
G03X33500Y22239I0J-358D01*
G01Y21432D01*
G03X33783Y21082I358J0D01*
G03X33500Y20732I75J-350D01*
G01Y19925D01*
G03X33686Y19611I358J0D01*
G01X34501Y19166D01*
G03X34934Y19009I433J519D01*
G01X35179D01*
G03X35472Y19076I0J676D01*
G01Y18696D01*
G03X35433Y18697I-39J-662D01*
G03X34772Y18092I0J-663D01*
G01X33967D01*
G03X33916Y18089I0J-358D01*
G01X33346Y18007D01*
G01X33028Y18036D01*
G03X33302Y18384I-84J348D01*
G01Y19191D01*
G03X33224Y19414I-358J0D01*
G01X33068Y19609D01*
G01X33205Y19799D01*
G03X33274Y20009I-290J210D01*
G01Y20809D01*
G03X32915Y21168I-358J0D01*
G01X32115D01*
G03X31757Y20809I0J-358D01*
G01Y20320D01*
G03X31614Y20365I-273J-618D01*
G01Y20879D01*
G03X31256Y21237I-358J0D01*
G01X30449D01*
G03X30099Y20954I0J-358D01*
G03X29888Y21209I-350J-75D01*
G03X30107Y21539I-139J330D01*
G01Y22403D01*
G03X29749Y22761I-358J0D01*
G01X28942D01*
G03X28719Y22683I0J-358D01*
G01X28627Y22609D01*
G03X28448Y22634I-179J-638D01*
G03X28398Y22632I0J-663D01*
G01X29416Y23650D01*
G01X30203Y23923D01*
G03X31092Y25019I-231J1096D01*
G03X29972Y26139I-1120J0D01*
G03X28852Y25019I0J-1120D01*
G01Y25011D01*
G01X28693Y24299D01*
G01X27216Y22822D01*
G03X27074Y22479I343J-343D01*
G01Y18362D01*
G01X26078Y17366D01*
G01X26287Y18108D01*
G01X26759Y18580D01*
G03X26901Y18923I-343J343D01*
G01Y23724D01*
G01X27544Y23904D01*
G03X28552Y25019I-112J1115D01*
G03X27432Y26139I-1120J0D01*
G03X26317Y25131I0J-1120D01*
G01X26107Y24380D01*
G01X26073Y24346D01*
G03X25931Y24003I343J-343D01*
G01Y21008D01*
G03X25699Y21094I-232J-273D01*
G01X25504D01*
G01X25377Y21247D01*
G01Y23630D01*
G01X25759Y24310D01*
G03X26012Y25019I-867J709D01*
G03X24892Y26139I-1120J0D01*
G03X23772Y25019I0J-1120D01*
G03X24025Y24310I1120J0D01*
G01X24407Y23630D01*
G01Y21247D01*
G01X24280Y21094D01*
G01X23999D01*
G03X23640Y20736I0J-358D01*
G01Y19336D01*
G03X23803Y19036I358J0D01*
G03X23640Y18736I195J-300D01*
G01Y17336D01*
G03X23802Y17036I358J0D01*
G03X23640Y16737I196J-300D01*
G01Y15337D01*
G03X23803Y15036I358J0D01*
G03X23640Y14736I195J-300D01*
G01Y14582D01*
G01X23487Y14455D01*
G01X21664D01*
G01X21567Y14552D01*
G01Y19063D01*
G03X21885Y19313I-231J622D01*
G01X21956Y19175D01*
G03X22606Y18641I650J129D01*
G03X23269Y19304I0J663D01*
G03X22735Y19954I-663J0D01*
G01X22710Y19967D01*
G01Y20955D01*
G03X22637Y21211I-485J0D01*
G01X22606Y21576D01*
G01Y23839D01*
G03X22595Y23926I-358J0D01*
G03X23472Y25019I-243J1093D01*
G03X22352Y26139I-1120J0D01*
G03X21232Y25019I0J-1120D01*
G03X21590Y24198I1120J0D01*
G01X20848D01*
G03X20548Y24036I0J-358D01*
G03X20476Y24117I-300J-195D01*
G03X20932Y25019I-664J902D01*
G03X19812Y26139I-1120J0D01*
G03X18692Y25019I0J-1120D01*
G03X19049Y24199I1120J0D01*
G01X18848D01*
G03X18547Y24036I0J-358D01*
G03X18248Y24198I-300J-196D01*
G01X18034D01*
G03X18392Y25019I-762J821D01*
G03X17272Y26139I-1120J0D01*
G03X16152Y25019I0J-1120D01*
G03X16615Y24112I1120J0D01*
G03X16547Y24035I233J-272D01*
G03X16248Y24197I-300J-196D01*
G01X16155D01*
G01X16002Y24372D01*
G03X15976Y24431I-455J-169D01*
G01X15848Y25113D01*
G03X14732Y26139I-1116J-94D01*
G03X13612Y25019I0J-1120D01*
G03X13856Y24321I1120J0D01*
G01X13506Y24418D01*
G01X13307Y25131D01*
G03X12192Y26139I-1115J-112D01*
G03X11072Y25019I0J-1120D01*
G03X11430Y24198I1120J0D01*
G01X10848D01*
G03X10548Y24035I0J-358D01*
G03X10248Y24198I-300J-195D01*
G01X9754D01*
G01Y26185D01*
G01X41097D01*
G02X41679Y25603I0J-582D01*
G01Y3988D01*
G01X35834Y9023D02*
G03X36449Y8608I615J248D01*
G03X37079Y9063I0J663D01*
G01X38050D01*
G03X38408Y9422I0J358D01*
G01Y9822D01*
G03X38385Y9947I-358J0D01*
G03X38408Y10072I-336J125D01*
G01Y10472D01*
G03X38385Y10597I-358J0D01*
G03X38408Y10722I-336J125D01*
G01Y11122D01*
G03X38385Y11247I-358J0D01*
G03X38408Y11372I-336J125D01*
G01Y11772D01*
G03X38050Y12130I-358J0D01*
G01X36700D01*
G03X36342Y11772I0J-358D01*
G01Y11372D01*
G03X36364Y11247I358J0D01*
G03X36342Y11122I336J-125D01*
G01Y10722D01*
G03X36364Y10597I358J0D01*
G03X36342Y10472I336J-125D01*
G01Y10072D01*
G03X36360Y9959I358J0D01*
G01X36339Y9929D01*
G01X36324Y9922D01*
G03X36198Y9885I125J-651D01*
G01Y10431D01*
G03X35840Y10789I-358J0D01*
G01X33375D01*
G03X33017Y10431I0J-358D01*
G01Y9381D01*
G03X33375Y9023I358J0D01*
G01X35834D01*
G01X35680Y13831D02*
G03X36038Y14189I0J358D01*
G01Y14342D01*
G03X36195Y14323I157J644D01*
G03X36858Y14986I0J663D01*
G03X36195Y15649I-663J0D01*
G03X36038Y15630I0J-663D01*
G01Y15783D01*
G03X35680Y16141I-358J0D01*
G01X33680D01*
G03X33322Y15783I0J-358D01*
G01Y14189D01*
G03X33680Y13831I358J0D01*
G01X35680D01*
G01X31392Y4699D02*
G03X32512Y3579I1120J0D01*
G03X33632Y4699I0J1120D01*
G03X32512Y5819I-1120J0D01*
G03X31392Y4699I0J-1120D01*
G01X12192Y3579D02*
G03X13312Y4699I0J1120D01*
G03X12192Y5819I-1120J0D01*
G03X11072Y4699I0J-1120D01*
G03X12192Y3579I1120J0D01*
G01X16152Y4699D02*
G03X17272Y3579I1120J0D01*
G03X18392Y4699I0J1120D01*
G03X17272Y5819I-1120J0D01*
G03X16152Y4699I0J-1120D01*
G01X33932Y4699D02*
G03X35052Y3579I1120J0D01*
G03X36172Y4699I0J1120D01*
G03X35052Y5819I-1120J0D01*
G03X33932Y4699I0J-1120D01*
G01X21232Y4699D02*
G03X22352Y3579I1120J0D01*
G03X23472Y4699I0J1120D01*
G03X22352Y5819I-1120J0D01*
G03X21232Y4699I0J-1120D01*
G01X18692Y4699D02*
G03X19812Y3579I1120J0D01*
G03X20932Y4699I0J1120D01*
G03X19812Y5819I-1120J0D01*
G03X18692Y4699I0J-1120D01*
G01X32512Y23899D02*
G03X33632Y25019I0J1120D01*
G03X32512Y26139I-1120J0D01*
G03X31392Y25019I0J-1120D01*
G03X32512Y23899I1120J0D01*
G01X18766Y9086D02*
G03X18548Y8933I81J-349D01*
G03X18248Y9096I-300J-196D01*
G01X17757D01*
G01X17630Y9248D01*
G01Y9331D01*
G01X17696Y9538D01*
G03X17808Y9906I-551J368D01*
G03X17671Y10310I-663J0D01*
G01X17713D01*
G01X17920Y10244D01*
G03X18288Y10132I368J551D01*
G03X18951Y10795I0J663D01*
G03X18288Y11458I-663J0D01*
G03X17920Y11346I0J-663D01*
G01X17713Y11280D01*
G01X16764D01*
G03X16421Y11138I0J-485D01*
G01X15205Y9922D01*
G03X15062Y9579I343J-343D01*
G01Y9248D01*
G01X14935Y9096D01*
G01X14848D01*
G03X14548Y8933I0J-358D01*
G03X14248Y9096I-300J-196D01*
G01X13693D01*
G01X13566Y9248D01*
G01Y13642D01*
G01X14187Y14263D01*
G03X14478Y14196I291J596D01*
G03X15141Y14859I0J663D01*
G03X14562Y15517I-663J0D01*
G01X15681D01*
G01X15888Y15451D01*
G03X16256Y15339I368J551D01*
G03X16919Y16002I0J663D01*
G03X16256Y16665I-663J0D01*
G03X15888Y16553I0J-663D01*
G01X15681Y16487D01*
G01X14689D01*
G03X15268Y17145I-84J658D01*
G03X14605Y17808I-663J0D01*
G03X14237Y17696I0J-663D01*
G01X14030Y17630D01*
G01X12700D01*
G03X12357Y17488I0J-485D01*
G01X9754Y14885D01*
G01Y19698D01*
G03X10188Y20320I-229J622D01*
G03X10010Y20772I-663J0D01*
G01Y20982D01*
G01X10248D01*
G03X10548Y21144I0J358D01*
G03X10848Y20982I300J195D01*
G01X10945D01*
G01X11057Y20847D01*
G01X11006Y20688D01*
G03X10894Y20320I551J-368D01*
G03X11557Y19657I663J0D01*
G03X12220Y20320I0J663D01*
G03X12108Y20688I-663J0D01*
G01X12057Y20847D01*
G01X12169Y20982D01*
G01X12248D01*
G03X12548Y21144I0J358D01*
G03X12848Y20982I300J196D01*
G01X14248D01*
G03X14547Y21144I0J358D01*
G03X14848Y20981I300J195D01*
G01X15723D01*
G01X14785Y20043D01*
G01X13656D01*
G01X13449Y20109D01*
G03X13081Y20221I-368J-551D01*
G03X12418Y19558I0J-663D01*
G03X13081Y18895I663J0D01*
G03X13449Y19007I0J663D01*
G01X13656Y19073D01*
G01X14986D01*
G03X15106Y19088I0J485D01*
G03X15085Y18923I642J-165D01*
G03X15748Y18260I663J0D01*
G03X16411Y18923I0J663D01*
G03X16393Y19078I-663J0D01*
G01X16438Y19181D01*
G01X17473Y20216D01*
G01X18542D01*
G03X18885Y20358I0J485D01*
G01X19290Y20763D01*
G01X19875Y20983D01*
G01X20248D01*
G03X20547Y21144I0J358D01*
G03X20761Y20992I300J195D01*
G01X21740Y20748D01*
G01Y20211D01*
G03X21336Y20348I-404J-526D01*
G03X20677Y19758I0J-663D01*
G01X20657Y19665D01*
G03X20597Y19431I425J-234D01*
G01Y14351D01*
G03X20739Y14008I485J0D01*
G01X21120Y13627D01*
G03X21463Y13485I343J343D01*
G01X23487D01*
G01X23640Y13358D01*
G01Y13336D01*
G03X23801Y13037I358J0D01*
G03X23639Y12737I196J-300D01*
G01Y12677D01*
G01X23487Y12550D01*
G01X21156D01*
G01X20297Y13409D01*
G01Y18034D01*
G03X20155Y18377I-485J0D01*
G01X20043Y18489D01*
G01Y19237D01*
G01X20109Y19444D01*
G03X20221Y19812I-551J368D01*
G03X19558Y20475I-663J0D01*
G03X18895Y19812I0J-663D01*
G03X19007Y19444I663J0D01*
G01X19073Y19237D01*
G01Y18288D01*
G03X19215Y17945I485J0D01*
G01X19327Y17833D01*
G01Y13208D01*
G03X19469Y12865I485J0D01*
G01X20612Y11722D01*
G03X20955Y11580I343J343D01*
G01X23487D01*
G01X23639Y11453D01*
G01Y11337D01*
G03X23801Y11038I358J0D01*
G03X23641Y10739I198J-298D01*
G01Y10652D01*
G01X23027Y11265D01*
G03X22684Y11407I-343J-343D01*
G01X20140D01*
G01X19154Y12393D01*
G01Y17018D01*
G03X19012Y17361I-485J0D01*
G01X17791Y18582D01*
G01X17823Y18682D01*
G03X17935Y19050I-551J368D01*
G03X17272Y19713I-663J0D01*
G03X16609Y19050I0J-663D01*
G03X16721Y18682I663J0D01*
G01X16787Y18475D01*
G01Y18415D01*
G03X16929Y18072I485J0D01*
G01X18184Y16817D01*
G01Y12192D01*
G03X18326Y11849I485J0D01*
G01X19596Y10579D01*
G03X19939Y10437I343J343D01*
G01X22483D01*
G01X23224Y9696D01*
G03X23478Y9562I343J343D01*
G01X23641Y9427D01*
G01Y9339D01*
G03X23707Y9131I358J0D01*
G01X23518Y9097D01*
G01X22848D01*
G03X22547Y8934I0J-358D01*
G01X22537Y8948D01*
G01X22493Y9009D01*
G03X22507Y9144I-649J135D01*
G03X21844Y9807I-663J0D01*
G03X21360Y9597I0J-663D01*
G03X20701Y10188I-659J-72D01*
G03X20051Y9654I0J-663D01*
G01X19952Y9462D01*
G01X19823Y9333D01*
G01X18766Y9086D01*
G01X10564Y9153D02*
G01X10527Y8962D01*
G03X10248Y9096I-279J-225D01*
G01X10033D01*
G01Y13792D01*
G01X12901Y16660D01*
G01X14030D01*
G01X14237Y16594D01*
G03X14521Y16487I368J551D01*
G01X13462D01*
G03X13119Y16345I0J-485D01*
G01X10706Y13932D01*
G03X10564Y13589I343J-343D01*
G01Y9153D01*
G01X12596Y9168D02*
G01X12535Y8951D01*
G03X12248Y9096I-288J-213D01*
G01X11661D01*
G01X11534Y9248D01*
G01Y13388D01*
G01X13663Y15517D01*
G01X14394D01*
G03X14073Y15384I84J-658D01*
G01X13975Y15329D01*
G03X13754Y15202I122J-470D01*
G01X12738Y14186D01*
G03X12596Y13843I343J-343D01*
G01Y9168D01*
G01X27813Y13080D02*
G03X27772Y13186I-350J-75D01*
G01X27623Y13440D01*
G01X27804Y13692D01*
G03X27871Y13901I-291J209D01*
G01Y14801D01*
G03X27513Y15159I-358J0D01*
G01X26713D01*
G03X26444Y15038I0J-358D01*
G01X26404Y15004D01*
G03X26289Y15014I-115J-653D01*
G03X25990Y14943I0J-663D01*
G03X25893Y15036I-292J-207D01*
G03X26056Y15337I-195J300D01*
G01Y15381D01*
G03X26289Y15339I233J621D01*
G03X26368Y15344I0J663D01*
G01X26428Y15294D01*
G03X26656Y15212I229J276D01*
G01X27463D01*
G03X27821Y15570I0J358D01*
G01Y16434D01*
G03X27463Y16792I-358J0D01*
G01X26876D01*
G01X27902Y17818D01*
G03X28044Y18161I-343J343D01*
G01Y18397D01*
G03X28448Y18260I404J526D01*
G03X28627Y18285I0J663D01*
G01X28719Y18211D01*
G03X28803Y18161I224J280D01*
G03X28719Y18111I139J-330D01*
G01X28627Y18037D01*
G03X28448Y18062I-179J-638D01*
G03X27785Y17399I0J-663D01*
G03X28448Y16736I663J0D01*
G03X28627Y16761I0J663D01*
G01X28719Y16687D01*
G03X28942Y16609I224J280D01*
G01X29749D01*
G03X30099Y16892I0J358D01*
G03X30449Y16609I350J75D01*
G01X31256D01*
G03X31614Y16967I0J358D01*
G01Y17231D01*
G01X31623D01*
G03X31722Y17239I0J676D01*
G01Y16877D01*
G03X31724Y16835I358J0D01*
G01X31822Y16026D01*
G01X31621Y16112D01*
G03X31480Y16141I-141J-329D01*
G01X29480D01*
G03X29122Y15783I0J-358D01*
G01Y14189D01*
G03X29189Y13981I358J0D01*
G01X29764Y13178D01*
G03X29512Y13247I-300J-605D01*
G01X29050Y13354D01*
G03X28970Y13363I-81J-349D01*
G01X28163D01*
G03X27813Y13080I0J-358D01*
G01X26057Y9736D02*
G01X26057Y10739D01*
G03X25895Y11039I-358J0D01*
G03X26055Y11337I-198J298D01*
G01Y12737D01*
G03X25894Y13036I-358J0D01*
G03X26056Y13336I-196J300D01*
G01Y13730D01*
G03X26289Y13688I233J621D01*
G03X26404Y13698I0J663D01*
G01X26439Y13669D01*
G01X26585Y13464D01*
G01X26440Y13291D01*
G03X26298Y13005I216J-286D01*
G01Y12141D01*
G03X26656Y11783I358J0D01*
G01X27318D01*
G03X27302Y11676I342J-107D01*
G01Y10285D01*
G01X26747Y9775D01*
G01X26220D01*
G03X26057Y9736I0J-358D01*
G04 Copper End*

G04 Tear Start*
G36*
G01X11430Y20959D02*
G01X11684Y20959D01*
G01X12002Y21340D01*
G01X11113D01*
G01X11430Y20959D01*
G37*
G36*
G01X13281Y24109D02*
G01X12922Y24109D01*
G01X12848Y23735D01*
G01X14248Y23840D01*
G01X13281Y24109D01*
G37*
G36*
G01X15421Y24203D02*
G01X15103Y23839D01*
G01X15992D01*
G01X15675Y24203D01*
G01X15421D01*
G37*
G36*
G01X16578Y21330D02*
G01X16678Y21071D01*
G01X17397Y21340D01*
G01X16848Y22048D01*
G01X16578Y21330D01*
G37*
G36*
G01X18733Y21071D02*
G01X19092Y21071D01*
G01X19810Y21341D01*
G01X18848Y21635D01*
G01X18733Y21071D01*
G37*
G36*
G01X21930Y21070D02*
G01X22290Y21070D01*
G01X22248Y21561D01*
G01X20848Y21339D01*
G01X21930Y21070D01*
G37*
G36*
G01X23368Y20957D02*
G01X23686Y21338D01*
G01X22848D01*
G01X23114Y20957D01*
G01X23368D01*
G37*
G36*
G01X24765Y21117D02*
G01X24448Y20736D01*
G01X25337D01*
G01X25019Y21117D01*
G01X24765D01*
G37*
G36*
G01X25967Y18654D02*
G01X25600Y18736D01*
G01X25698Y17336D01*
G01X25967Y18295D01*
G01Y18654D01*
G37*
G36*
G01X23617Y13843D02*
G01X23998Y13526D01*
G01Y14415D01*
G01X23617Y14097D01*
G01Y13843D01*
G37*
G36*
G01X23616Y11938D02*
G01X23997Y11621D01*
G01Y12510D01*
G01X23616Y12192D01*
G01Y11938D01*
G37*
G36*
G01X23618Y10166D02*
G01X23618Y9912D01*
G01X23999Y9595D01*
G01Y10484D01*
G01X23618Y10166D01*
G37*
G36*
G01X23865Y6043D02*
G01X24248Y6238D01*
G01X22848D01*
G01X23230Y6043D01*
G01X23865D01*
G37*
G36*
G01X24921Y8089D02*
G01X24921Y8987D01*
G01X23550Y8738D01*
G01X24248Y6238D01*
G01X24921Y8089D01*
G37*
G36*
G01X21971Y9119D02*
G01X21717Y9119D01*
G01X21400Y8738D01*
G01X22248D01*
G01X21971Y9119D01*
G37*
G36*
G01X20363Y9007D02*
G01X20004Y9007D01*
G01X18848Y8738D01*
G01X20248Y8443D01*
G01X20363Y9007D01*
G37*
G36*
G01X17272Y9119D02*
G01X17018Y9119D01*
G01X16848Y8738D01*
G01X17590D01*
G01X17272Y9119D01*
G37*
G36*
G01X15421Y9119D02*
G01X15103Y8738D01*
G01X15992D01*
G01X15675Y9119D01*
G01X15421D01*
G37*
G36*
G01X14517Y6148D02*
G01X14248Y6866D01*
G01X13619Y6238D01*
G01X14337Y5968D01*
G01X14517Y6148D01*
G37*
G36*
G01X13208Y9119D02*
G01X12954Y9119D01*
G01X12848Y8738D01*
G01X13526D01*
G01X13208Y9119D01*
G37*
G36*
G01X11176Y9119D02*
G01X10922Y9119D01*
G01X10848Y8738D01*
G01X11494D01*
G01X11176Y9119D01*
G37*
G36*
G01X35449Y18161D02*
G01X35449Y17907D01*
G01X35830Y17590D01*
G01Y18479D01*
G01X35449Y18161D01*
G37*
G36*
G01X34893Y22565D02*
G01X34893Y22311D01*
G01X35229Y22235D01*
G01Y22641D01*
G01X34893Y22565D01*
G37*
G36*
G01X36744Y22565D02*
G01X36626Y22641D01*
G01Y22235D01*
G01X36744Y22311D01*
G01Y22565D01*
G37*
G36*
G01X36320Y22911D02*
G01X35229Y22641D01*
G01X36626Y22408D01*
G01X36679Y22911D01*
G01X36320D01*
G37*
G36*
G01X34709Y19460D02*
G01X35158Y19910D01*
G01X34722Y19925D01*
G01X33858D01*
G01X34709Y19460D01*
G37*
G36*
G01X34783Y22508D02*
G01X34065Y22239D01*
G01X34722Y21639D01*
G01X34983Y22348D01*
G01X34783Y22508D01*
G37*
G36*
G01X32879Y12523D02*
G01X32879Y11888D01*
G01X33375Y11681D01*
G01Y12731D01*
G01X32879Y12523D01*
G37*
G36*
G01X26797Y8700D02*
G01X27660Y8136D01*
G01Y10128D01*
G01X26797Y9335D01*
G01Y8700D01*
G37*
G36*
G01X28258Y12573D02*
G01X27660Y11676D01*
G01X29686D01*
G01X28893Y12573D01*
G01X28258D01*
G37*
G36*
G01X28072Y8700D02*
G01X28072Y9335D01*
G01X27120Y9417D01*
G01Y8617D01*
G01X28072Y8700D01*
G37*
G36*
G01X26797Y11198D02*
G01X26543Y11198D01*
G01X26226Y10817D01*
G01X27115D01*
G01X26797Y11198D01*
G37*
G36*
G01X36061Y14859D02*
G01X36061Y15113D01*
G01X35680Y15431D01*
G01Y14542D01*
G01X36061Y14859D01*
G37*
G36*
G01X30163Y13237D02*
G01X30798Y13237D01*
G01X31480Y14189D01*
G01X29480D01*
G01X30163Y13237D01*
G37*
G36*
G01X32004Y14923D02*
G01X32004Y15558D01*
G01X31480Y15783D01*
G01Y14189D01*
G01X32004Y14923D01*
G37*
G36*
G01X36539Y9181D02*
G01X36700Y9422D01*
G01Y9822D01*
G01X36430Y9432D01*
G01X36539Y9181D01*
G37*
G36*
G01X33015Y16963D02*
G01X33967Y16934D01*
G01Y17734D01*
G01X33015Y17598D01*
G01Y16963D01*
G37*
G36*
G01X28561Y17526D02*
G01X28561Y17272D01*
G01X28942Y16967D01*
G01Y17831D01*
G01X28561Y17526D01*
G37*
G36*
G01X30544Y18161D02*
G01X30449Y17831D01*
G01X31256D01*
G01X31179Y18161D01*
G01X30544D01*
G37*
G36*
G01X27240Y13386D02*
G01X26986Y13386D01*
G01X26668Y13005D01*
G01X27463D01*
G01X27240Y13386D01*
G37*
G36*
G01X28258Y11188D02*
G01X28893Y11188D01*
G01X28970Y12141D01*
G01X28163D01*
G01X28258Y11188D01*
G37*
G36*
G01X29464Y12256D02*
G01X29464Y12891D01*
G01X28970Y13005D01*
G01Y12141D01*
G01X29464Y12256D01*
G37*
G36*
G01X28561Y20574D02*
G01X28561Y20320D01*
G01X28942Y20015D01*
G01Y20879D01*
G01X28561Y20574D01*
G37*
G36*
G01X31170Y19688D02*
G01X31256Y20015D01*
G01X30449D01*
G01X30535Y19688D01*
G01X31170D01*
G37*
G36*
G01X28561Y19050D02*
G01X28561Y18796D01*
G01X28942Y18491D01*
G01Y19355D01*
G01X28561Y19050D01*
G37*
G36*
G01X31179Y18161D02*
G01X31256Y18491D01*
G01X30449D01*
G01X30544Y18161D01*
G01X31179D01*
G37*
G36*
G01X31170Y19688D02*
G01X30535Y19688D01*
G01X30449Y19355D01*
G01X31256D01*
G01X31170Y19688D01*
G37*
G36*
G01X28561Y22098D02*
G01X28561Y21844D01*
G01X28942Y21539D01*
G01Y22403D01*
G01X28561Y22098D01*
G37*
G36*
G01X28702Y15113D02*
G01X28448Y15113D01*
G01X28131Y14801D01*
G01X28913D01*
G01X28702Y15113D01*
G37*
G36*
G01X26332Y14478D02*
G01X26332Y14224D01*
G01X26713Y13907D01*
G01Y14796D01*
G01X26332Y14478D01*
G37*
G36*
G01X27240Y13520D02*
G01X27513Y13901D01*
G01X26713D01*
G01X26986Y13520D01*
G01X27240D01*
G37*
G36*
G01X38651Y5492D02*
G01X38805Y4889D01*
G01X39605Y5223D01*
G01X39011Y5492D01*
G01X38651D01*
G37*
G36*
G01X27677Y6486D02*
G01X27931Y6486D01*
G01X28208Y6807D01*
G01X27401D01*
G01X27677Y6486D01*
G37*
G36*
G01X26171Y6426D02*
G01X26425Y6426D01*
G01X26701Y6807D01*
G01X25894D01*
G01X26171Y6426D01*
G37*
G36*
G01X32385Y19628D02*
G01X32639Y19628D01*
G01X32915Y20009D01*
G01X32115D01*
G01X32385Y19628D01*
G37*
G36*
G01X32830Y15925D02*
G01X32944Y16877D01*
G01X32080D01*
G01X32195Y15925D01*
G01X32830D01*
G37*
G36*
G01X33897Y16963D02*
G01X33897Y17598D01*
G01X32944Y17684D01*
G01Y16877D01*
G01X33897Y16963D01*
G37*
G36*
G01X32385Y19572D02*
G01X32080Y19191D01*
G01X32944D01*
G01X32639Y19572D01*
G01X32385D01*
G37*
G36*
G01X28448Y15189D02*
G01X28702Y15189D01*
G01X28970Y15570D01*
G01X28163D01*
G01X28448Y15189D01*
G37*
G36*
G01X26289Y15875D02*
G01X26656Y15570D01*
G01Y16434D01*
G01X26289Y16129D01*
G01Y15875D01*
G37*
G36*
G01X15304Y5203D02*
G01X14859Y5753D01*
G01X14605D01*
G01X14161Y5203D01*
G01X15304D01*
G37*
G36*
G01X24940Y5460D02*
G01X24201Y5839D01*
G01X23752Y5390D01*
G01X24131Y4651D01*
G01X24940Y5460D01*
G37*
G36*
G01X27480Y5460D02*
G01X26606Y5705D01*
G01X26426Y5525D01*
G01X26671Y4651D01*
G01X27480Y5460D01*
G37*
G36*
G01X14684Y24258D02*
G01X15458Y24114D01*
G01X15637Y24293D01*
G01X15493Y25067D01*
G01X14684Y24258D01*
G37*
G36*
G01X12144Y24258D02*
G01X13018Y24013D01*
G01X13198Y24193D01*
G01X12953Y25067D01*
G01X12144Y24258D01*
G37*
G36*
G01X24321Y24515D02*
G01X24765Y23724D01*
G01X25019D01*
G01X25464Y24515D01*
G01X24321D01*
G37*
G36*
G01X26671Y25067D02*
G01X26426Y24193D01*
G01X26606Y24013D01*
G01X27480Y24258D01*
G01X26671Y25067D01*
G37*
G36*
G01X29211Y24977D02*
G01X29020Y24120D01*
G01X29221Y23961D01*
G01X30109Y24269D01*
G01X29211Y24977D01*
G37*
G36*
G01X37021Y24515D02*
G01X37465Y24003D01*
G01X37719D01*
G01X38164Y24515D01*
G01X37021D01*
G37*
G36*
G01X11786Y20522D02*
G01X11684Y20839D01*
G01X11430D01*
G01X11328Y20522D01*
G01X11786D01*
G37*
G36*
G01X13283Y19329D02*
G01X13600Y19431D01*
G01Y19685D01*
G01X13283Y19787D01*
G01Y19329D01*
G37*
G36*
G01X28650Y20218D02*
G01X28967Y20320D01*
G01Y20574D01*
G01X28650Y20676D01*
G01Y20218D01*
G37*
G36*
G01X28650Y21742D02*
G01X28967Y21844D01*
G01Y22098D01*
G01X28650Y22200D01*
G01Y21742D01*
G37*
G36*
G01X22625Y19608D02*
G01X22329Y19760D01*
G01X22150Y19581D01*
G01X22302Y19285D01*
G01X22625Y19608D01*
G37*
G36*
G01X28650Y17170D02*
G01X28967Y17272D01*
G01Y17526D01*
G01X28650Y17628D01*
G01Y17170D01*
G37*
G36*
G01X26491Y14122D02*
G01X26808Y14224D01*
G01Y14478D01*
G01X26491Y14580D01*
G01Y14122D01*
G37*
G36*
G01X26491Y15773D02*
G01X26808Y15875D01*
G01Y16129D01*
G01X26491Y16231D01*
G01Y15773D01*
G37*
G36*
G01X14403Y17374D02*
G01X14086Y17272D01*
G01Y17018D01*
G01X14403Y16916D01*
G01Y17374D01*
G37*
G36*
G01X16054Y16231D02*
G01X15737Y16129D01*
G01Y15875D01*
G01X16054Y15773D01*
G01Y16231D01*
G37*
G36*
G01X14276Y15088D02*
G01X14097Y14986D01*
G01Y14732D01*
G01X14276Y14630D01*
G01Y15088D01*
G37*
G36*
G01X16916Y9704D02*
G01X17018Y9387D01*
G01X17272D01*
G01X17374Y9704D01*
G01X16916D01*
G37*
G36*
G01X39445Y22250D02*
G01X39762Y22289D01*
G01Y22670D01*
G01X39445Y22708D01*
G01Y22250D01*
G37*
G36*
G01X28650Y18694D02*
G01X28967Y18796D01*
G01Y19050D01*
G01X28650Y19152D01*
G01Y18694D01*
G37*
G36*
G01X18086Y11024D02*
G01X17769Y10922D01*
G01Y10668D01*
G01X18086Y10566D01*
G01Y11024D01*
G37*
G36*
G01X35635Y17805D02*
G01X35952Y17907D01*
G01Y18161D01*
G01X35635Y18263D01*
G01Y17805D01*
G37*
G36*
G01X36753Y9252D02*
G01X36889Y9532D01*
G01X36710Y9711D01*
G01X36430Y9575D01*
G01X36753Y9252D01*
G37*
G36*
G01X35993Y15215D02*
G01X35676Y15113D01*
G01Y14859D01*
G01X35993Y14757D01*
G01Y15215D01*
G37*
G36*
G01X38119Y21386D02*
G01X37823Y21538D01*
G01X37644Y21359D01*
G01X37796Y21063D01*
G01X38119Y21386D01*
G37*
G36*
G01X21615Y8942D02*
G01X21717Y8625D01*
G01X21971D01*
G01X22073Y8942D01*
G01X21615D01*
G37*
G36*
G01X20397Y9544D02*
G01X20245Y9248D01*
G01X20424Y9069D01*
G01X20720Y9221D01*
G01X20397Y9544D01*
G37*
G36*
G01X16005Y19087D02*
G01X16137Y19387D01*
G01X15827Y19435D01*
G01X15553Y19158D01*
G01X16005Y19087D01*
G37*
G36*
G01X17043Y18848D02*
G01X17145Y18531D01*
G01X17399D01*
G01X17501Y18848D01*
G01X17043D01*
G37*
G36*
G01X19329Y19610D02*
G01X19431Y19293D01*
G01X19685D01*
G01X19787Y19610D01*
G01X19329D01*
G37*
G36*
G01X21032Y19704D02*
G01X20992Y19521D01*
G01X21172Y19341D01*
G01X21355Y19381D01*
G01X21032Y19704D01*
G37*
G36*
G01X26441Y11101D02*
G01X26543Y10784D01*
G01X26797D01*
G01X26899Y11101D01*
G01X26441D01*
G37*
G36*
G01X28804Y15315D02*
G01X28702Y15632D01*
G01X28448D01*
G01X28346Y15315D01*
G01X28804D01*
G37*
G36*
G01X28346Y14911D02*
G01X28448Y14594D01*
G01X28702D01*
G01X28804Y14911D01*
G01X28346D01*
G37*
G36*
G01X23470Y21157D02*
G01X23368Y21474D01*
G01X23114D01*
G01X23012Y21157D01*
G01X23470D01*
G37*
G04 Tear End*

G04 Pad Start*
G36*
G01X10248Y23840D02*
G01X8848Y23840D01*
G01Y21340D01*
G01X10248D01*
G01Y23840D01*
G37*
G36*
G01X12248Y23840D02*
G01X10848Y23840D01*
G01Y21340D01*
G01X12248D01*
G01Y23840D01*
G37*
G36*
G01X14248Y23840D02*
G01X12848Y23840D01*
G01Y21340D01*
G01X14248D01*
G01Y23840D01*
G37*
G36*
G01X16248Y23839D02*
G01X14848Y23839D01*
G01Y21339D01*
G01X16248D01*
G01Y23839D01*
G37*
G36*
G01X18248Y23840D02*
G01X16848Y23840D01*
G01Y21340D01*
G01X18248D01*
G01Y23840D01*
G37*
G36*
G01X20248Y23841D02*
G01X18848Y23841D01*
G01Y21341D01*
G01X20248D01*
G01Y23841D01*
G37*
G36*
G01X22248Y23839D02*
G01X20848Y23839D01*
G01Y21339D01*
G01X22248D01*
G01Y23839D01*
G37*
G36*
G01X24248Y23838D02*
G01X22848Y23838D01*
G01Y21338D01*
G01X24248D01*
G01Y23838D01*
G37*
G36*
G01X25699Y19336D02*
G01X25699Y20736D01*
G01X23999D01*
G01Y19336D01*
G01X25699D01*
G37*
G36*
G01X25698Y17336D02*
G01X25698Y18736D01*
G01X23998D01*
G01Y17336D01*
G01X25698D01*
G37*
G36*
G01X25698Y15337D02*
G01X25698Y16737D01*
G01X23998D01*
G01Y15337D01*
G01X25698D01*
G37*
G36*
G01X25698Y13336D02*
G01X25698Y14736D01*
G01X23998D01*
G01Y13336D01*
G01X25698D01*
G37*
G36*
G01X25697Y11337D02*
G01X25697Y12737D01*
G01X23997D01*
G01Y11337D01*
G01X25697D01*
G37*
G36*
G01X25699Y9339D02*
G01X25699Y10739D01*
G01X23999D01*
G01Y9339D01*
G01X25699D01*
G37*
G36*
G01X22848Y6238D02*
G01X24248Y6238D01*
G01Y8738D01*
G01X22848D01*
G01Y6238D01*
G37*
G36*
G01X20848Y6238D02*
G01X22248Y6238D01*
G01Y8738D01*
G01X20848D01*
G01Y6238D01*
G37*
G36*
G01X18848Y6238D02*
G01X20248Y6238D01*
G01Y8738D01*
G01X18848D01*
G01Y6238D01*
G37*
G36*
G01X16848Y6238D02*
G01X18248Y6238D01*
G01Y8738D01*
G01X16848D01*
G01Y6238D01*
G37*
G36*
G01X14848Y6238D02*
G01X16248Y6238D01*
G01Y8738D01*
G01X14848D01*
G01Y6238D01*
G37*
G36*
G01X12848Y6238D02*
G01X14248Y6238D01*
G01Y8738D01*
G01X12848D01*
G01Y6238D01*
G37*
G36*
G01X10848Y6238D02*
G01X12248Y6238D01*
G01Y8738D01*
G01X10848D01*
G01Y6238D01*
G37*
G36*
G01X8848Y6238D02*
G01X10248Y6238D01*
G01Y8738D01*
G01X8848D01*
G01Y6238D01*
G37*
G36*
G01X35830Y19457D02*
G01X35830Y16865D01*
G01X37830D01*
G01Y19457D01*
G01X35830D01*
G37*
G36*
G01X38915Y19457D02*
G01X38915Y16865D01*
G01X40915D01*
G01Y19457D01*
G01X38915D01*
G37*
G36*
G01X36626Y22641D02*
G01X35229Y22641D01*
G01Y22235D01*
G01X36626D01*
G01Y22641D01*
G37*
G36*
G01X36626Y21991D02*
G01X35229Y21991D01*
G01Y21585D01*
G01X36626D01*
G01Y21991D01*
G37*
G36*
G01X36626Y21341D02*
G01X35229Y21341D01*
G01Y20935D01*
G01X36626D01*
G01Y21341D01*
G37*
G36*
G01X36626Y20691D02*
G01X35229Y20691D01*
G01Y20285D01*
G01X36626D01*
G01Y20691D01*
G37*
G36*
G01X41225Y20691D02*
G01X39828Y20691D01*
G01Y20285D01*
G01X41225D01*
G01Y20691D01*
G37*
G36*
G01X41225Y21341D02*
G01X39828Y21341D01*
G01Y20935D01*
G01X41225D01*
G01Y21341D01*
G37*
G36*
G01X41225Y21991D02*
G01X39828Y21991D01*
G01Y21585D01*
G01X41225D01*
G01Y21991D01*
G37*
G36*
G01X41225Y22641D02*
G01X39828Y22641D01*
G01Y22235D01*
G01X41225D01*
G01Y22641D01*
G37*
G36*
G01X34722Y20732D02*
G01X33858Y20732D01*
G01Y19925D01*
G01X34722D01*
G01Y20732D01*
G37*
G36*
G01X34722Y22239D02*
G01X33858Y22239D01*
G01Y21432D01*
G01X34722D01*
G01Y22239D01*
G37*
G36*
G01X33375Y8131D02*
G01X33375Y7081D01*
G01X35840D01*
G01Y8131D01*
G01X33375D01*
G37*
G36*
G01X33375Y10431D02*
G01X33375Y9381D01*
G01X35840D01*
G01Y10431D01*
G01X33375D01*
G37*
G36*
G01X33375Y12731D02*
G01X33375Y11681D01*
G01X35840D01*
G01Y12731D01*
G01X33375D01*
G37*
G36*
G01X27660Y11676D02*
G01X27660Y8136D01*
G01X30125D01*
G01Y11676D01*
G01X27660D01*
G37*
G36*
G01X27120Y9417D02*
G01X26220Y9417D01*
G01Y8617D01*
G01X27120D01*
G01Y9417D01*
G37*
G36*
G01X27120Y10817D02*
G01X26220Y10817D01*
G01Y10017D01*
G01X27120D01*
G01Y10817D01*
G37*
G36*
G01X35680Y14189D02*
G01X35680Y15783D01*
G01X33680D01*
G01Y14189D01*
G01X35680D01*
G37*
G36*
G01X31480Y14189D02*
G01X31480Y15783D01*
G01X29480D01*
G01Y14189D01*
G01X31480D01*
G37*
G36*
G01X36700Y10722D02*
G01X38050Y10722D01*
G01Y11122D01*
G01X36700D01*
G01Y10722D01*
G37*
G36*
G01X36700Y10072D02*
G01X38050Y10072D01*
G01Y10472D01*
G01X36700D01*
G01Y10072D01*
G37*
G36*
G01X36700Y12022D02*
G01X38050Y12022D01*
G01Y12422D01*
G01X36700D01*
G01Y12022D01*
G37*
G36*
G01X36700Y11372D02*
G01X38050Y11372D01*
G01Y11772D01*
G01X36700D01*
G01Y11372D01*
G37*
G36*
G01X36700Y9422D02*
G01X38050Y9422D01*
G01Y9822D01*
G01X36700D01*
G01Y9422D01*
G37*
G36*
G01X36999Y12972D02*
G01X38599Y12972D01*
G01Y15072D01*
G01X36999D01*
G01Y12972D01*
G37*
G36*
G01X36999Y6772D02*
G01X38599Y6772D01*
G01Y8872D01*
G01X36999D01*
G01Y6772D01*
G37*
G36*
G01X39399Y11171D02*
G01X41299Y11171D01*
G01Y13071D01*
G01X39399D01*
G01Y11171D01*
G37*
G36*
G01X39399Y8773D02*
G01X41299Y8773D01*
G01Y10673D01*
G01X39399D01*
G01Y8773D01*
G37*
G36*
G01X39399Y13822D02*
G01X41299Y13822D01*
G01Y15622D01*
G01X39399D01*
G01Y13822D01*
G37*
G36*
G01X39399Y6222D02*
G01X41299Y6222D01*
G01Y8022D01*
G01X39399D01*
G01Y6222D01*
G37*
G36*
G01X34867Y17734D02*
G01X33967Y17734D01*
G01Y16934D01*
G01X34867D01*
G01Y17734D01*
G37*
G36*
G01X34867Y19134D02*
G01X33967Y19134D01*
G01Y18334D01*
G01X34867D01*
G01Y19134D01*
G37*
G36*
G01X29749Y16967D02*
G01X29749Y17831D01*
G01X28942D01*
G01Y16967D01*
G01X29749D01*
G37*
G36*
G01X31256Y16967D02*
G01X31256Y17831D01*
G01X30449D01*
G01Y16967D01*
G01X31256D01*
G37*
G36*
G01X27463Y12141D02*
G01X27463Y13005D01*
G01X26656D01*
G01Y12141D01*
G01X27463D01*
G37*
G36*
G01X28970Y12141D02*
G01X28970Y13005D01*
G01X28163D01*
G01Y12141D01*
G01X28970D01*
G37*
G36*
G01X29749Y20015D02*
G01X29749Y20879D01*
G01X28942D01*
G01Y20015D01*
G01X29749D01*
G37*
G36*
G01X31256Y20015D02*
G01X31256Y20879D01*
G01X30449D01*
G01Y20015D01*
G01X31256D01*
G37*
G36*
G01X29749Y18491D02*
G01X29749Y19355D01*
G01X28942D01*
G01Y18491D01*
G01X29749D01*
G37*
G36*
G01X31256Y18491D02*
G01X31256Y19355D01*
G01X30449D01*
G01Y18491D01*
G01X31256D01*
G37*
G36*
G01X29749Y21539D02*
G01X29749Y22403D01*
G01X28942D01*
G01Y21539D01*
G01X29749D01*
G37*
G36*
G01X31256Y21539D02*
G01X31256Y22403D01*
G01X30449D01*
G01Y21539D01*
G01X31256D01*
G37*
G36*
G01X28113Y14801D02*
G01X28113Y13901D01*
G01X28913D01*
G01Y14801D01*
G01X28113D01*
G37*
G36*
G01X26713Y14801D02*
G01X26713Y13901D01*
G01X27513D01*
G01Y14801D01*
G01X26713D01*
G37*
G36*
G01X41205Y5229D02*
G01X40405Y5229D01*
G01Y4429D01*
G01X41205D01*
G01Y5229D01*
G37*
G36*
G01X39605Y5223D02*
G01X38805Y5223D01*
G01Y4423D01*
G01X39605D01*
G01Y5223D01*
G37*
G36*
G01X27401Y7671D02*
G01X27401Y6807D01*
G01X28208D01*
G01Y7671D01*
G01X27401D01*
G37*
G36*
G01X25894Y7671D02*
G01X25894Y6807D01*
G01X26701D01*
G01Y7671D01*
G01X25894D01*
G37*
G36*
G01X32109Y22409D02*
G01X32109Y21609D01*
G01X32909D01*
G01Y22409D01*
G01X32109D01*
G37*
G36*
G01X32115Y20809D02*
G01X32115Y20009D01*
G01X32915D01*
G01Y20809D01*
G01X32115D01*
G37*
G36*
G01X32944Y17684D02*
G01X32080Y17684D01*
G01Y16877D01*
G01X32944D01*
G01Y17684D01*
G37*
G36*
G01X32944Y19191D02*
G01X32080Y19191D01*
G01Y18384D01*
G01X32944D01*
G01Y19191D01*
G37*
G36*
G01X28163Y16434D02*
G01X28163Y15570D01*
G01X28970D01*
G01Y16434D01*
G01X28163D01*
G37*
G36*
G01X26656Y16434D02*
G01X26656Y15570D01*
G01X27463D01*
G01Y16434D01*
G01X26656D01*
G37*
G54D10*
G01X14732Y4699D03*
G01X17272Y4699D03*
G01X9652Y4699D03*
G01X12192Y4699D03*
G01X19812Y4699D03*
G01X22352Y4699D03*
G01X24892Y4699D03*
G01X27432Y4699D03*
G01X35052Y4699D03*
G01X14732Y25019D03*
G01X9652Y25019D03*
G01X12192Y25019D03*
G01X37592Y4699D03*
G01X29972Y4699D03*
G01X32512Y4699D03*
G01X19812Y25019D03*
G01X22352Y25019D03*
G01X24892Y25019D03*
G01X27432Y25019D03*
G01X32512Y25019D03*
G01X29972Y25019D03*
G01X17272Y25019D03*
G01X35052Y25019D03*
G01X37592Y25019D03*
G04 Pad End*

G04 Via Start*
G54D11*
G01X9525Y20320D03*
G01X11557Y20320D03*
G01X13081Y19558D03*
G01X28448Y20447D03*
G01X28448Y21971D03*
G01X22606Y19304D03*
G01X28448Y17399D03*
G01X26289Y14351D03*
G01X26289Y16002D03*
G01X14605Y17145D03*
G01X16256Y16002D03*
G01X14478Y14859D03*
G01X17145Y9906D03*
G01X29464Y12573D03*
G01X39243Y22479D03*
G01X28448Y18923D03*
G01X18288Y10795D03*
G01X31623Y17907D03*
G01X35433Y18034D03*
G01X36449Y9271D03*
G01X36195Y14986D03*
G01X35179Y19685D03*
G01X38100Y21082D03*
G01X21844Y9144D03*
G01X20701Y9525D03*
G01X32879Y12206D03*
G01X15748Y18923D03*
G01X17272Y19050D03*
G01X19558Y19812D03*
G01X21336Y19685D03*
G01X31484Y19702D03*
G01X14605Y13208D03*
G01X16256Y13208D03*
G01X14605Y11811D03*
G01X16256Y11811D03*
G01X10795Y18415D03*
G01X12350Y18161D03*
G01X31469Y9906D03*
G01X38735Y15875D03*
G01X38862Y12319D03*
G01X10287Y13220D03*
G01X14478Y18669D03*
G01X27305Y23368D03*
G01X29972Y23368D03*
G01X18415Y9652D03*
G01X18415Y19812D03*
G01X20447Y20574D03*
G01X29083Y6985D03*
G01X33233Y23113D03*
G01X26670Y11303D03*
G01X28575Y15113D03*
G01X25654Y22987D03*
G01X23241Y20955D03*
G01X40894Y23749D03*
G01X39751Y25146D03*
G01X13716Y9779D03*
G01X22352Y12954D03*
G01X19304Y12700D03*
G01X22352Y16637D03*
G01X21463Y10287D03*
G01X14097Y20447D03*
G01X17526Y12573D03*
G04 Via End*

G04 Track Start*
G54D12*
G01X9652Y4699D02*
G01X9652Y7488D01*
G01X9548D01*
G01X14732Y4699D02*
G01X14732Y5753D01*
G01X9525Y20320D02*
G01X9525Y22567D01*
G01X9548Y22590D01*
G01X11557Y20320D02*
G01X11557Y22580D01*
G01X11548Y22590D01*
G01X27113Y14351D02*
G01X27113Y12573D01*
G01X27060D01*
G54D13*
G01X23548Y6043D02*
G01X24892Y4699D01*
G01X28893Y9906D02*
G01X28575Y10224D01*
G01Y12573D01*
G01X28575Y12573D02*
G01X28566Y12573D01*
G54D12*
G01X27060Y16002D02*
G01X26289Y16002D01*
G54D13*
G01X23548Y7488D02*
G01X23548Y7354D01*
G01Y6043D01*
G54D12*
G01X26289Y14351D02*
G01X27113Y14351D01*
G01X13081Y7404D02*
G01X14732Y5753D01*
G01X11548Y7488D02*
G01X11049Y7986D01*
G01X13081Y13843D02*
G01X13081Y7404D01*
G54D13*
G01X30861Y18914D02*
G01X30852Y18923D01*
G54D12*
G01X15548Y7488D02*
G01X15548Y9579D01*
G01X35433Y18034D02*
G01X36703Y18034D01*
G01X36830Y18161D01*
G54D13*
G01X23737Y7354D02*
G01X23548Y7354D01*
G01X26797Y9017D02*
G01X26543Y8763D01*
G01X25146D01*
G01X23737Y7354D01*
G54D12*
G01X26298Y5833D02*
G01X26298Y7239D01*
G01X27432Y4699D02*
G01X26298Y5833D01*
G01X36195Y14986D02*
G01X34680Y14986D01*
G54D13*
G01X32879Y12206D02*
G01X34608Y12206D01*
G01X28893Y9906D02*
G01X28956Y9843D01*
G01Y9017D01*
G01X26797D01*
G54D12*
G01X32512Y18787D02*
G01X32512Y20320D01*
G01X32639D01*
G01X34893Y22438D02*
G01X35927Y22438D01*
G01X34290Y21835D02*
G01X34893Y22438D01*
G01X37375Y9622D02*
G01X36800Y9622D01*
G01X36449Y9271D01*
G54D13*
G01X39243Y18833D02*
G01X39915Y18161D01*
G01X39243Y22479D02*
G01X39243Y18833D01*
G54D12*
G01X28448Y21971D02*
G01X29346Y21971D01*
G01X28448Y20447D02*
G01X29346Y20447D01*
G01X28448Y18923D02*
G01X29346Y18923D01*
G01X19685Y7488D02*
G01X19548Y7488D01*
G01X17548Y22590D02*
G01X17548Y22120D01*
G01X13081Y19558D02*
G01X14986Y19558D01*
G01X17548Y22120D01*
G01X13548Y23663D02*
G01X13548Y22590D01*
G01X15548Y22589D02*
G01X15548Y24203D01*
G01X14732Y25019D01*
G01X12192Y25019D02*
G01X13548Y23663D01*
G01X28448Y17399D02*
G01X29346Y17399D01*
G01X24848Y16037D02*
G01X25435Y16037D01*
G01X25435Y16037D02*
G01X27559Y18161D01*
G01X29972Y25019D02*
G01X29972Y24892D01*
G01X27559Y22479D01*
G01Y18161D01*
G01X23567Y10039D02*
G01X24849Y10039D01*
G01X24848Y13970D02*
G01X21463Y13970D01*
G01X24848Y13970D02*
G01X24848Y14036D01*
G01X24849Y20036D02*
G01X24892Y20036D01*
G01Y25019D01*
G54D13*
G01X30852Y19688D02*
G01X31484Y19688D01*
G01Y19702D01*
G01X30852Y20447D02*
G01X30852Y19688D01*
G01Y18923D01*
G54D12*
G01X19812Y13208D02*
G01X19812Y18034D01*
G01X18669Y12192D02*
G01X18669Y17018D01*
G01X18542Y20701D02*
G01X19548Y21707D01*
G01Y22591D01*
G01X14478Y14859D02*
G01X14097Y14859D01*
G01X13081Y13843D01*
G01X24847Y12037D02*
G01X24847Y12065D01*
G01X20955D01*
G01X19812Y13208D01*
G01X23567Y10039D02*
G01X22684Y10922D01*
G01X19939D01*
G01X18669Y12192D01*
G54D13*
G01X30861Y17408D02*
G01X30852Y17399D01*
G01X31369Y18161D02*
G01X31623Y17907D01*
G01X30861Y18161D02*
G01X31369Y18161D01*
G01X30861Y18914D02*
G01X30861Y18161D01*
G01X30861Y17408D02*
G01X30861Y18161D01*
G54D12*
G01X18288Y10795D02*
G01X16764Y10795D01*
G01X15548Y9579D01*
G01X17145Y9906D02*
G01X17145Y7890D01*
G01X17548Y7488D01*
G01X24848Y18036D02*
G01X25529Y18036D01*
G01X26416Y18923D01*
G01Y24003D01*
G01X27432Y25019D01*
G01X21463Y13970D02*
G01X21082Y14351D01*
G54D13*
G01X32879Y12206D02*
G01X31355Y12206D01*
G01X30480Y13081D01*
G01Y15240D01*
G01X32512Y17281D02*
G01X32512Y15748D01*
G01X32004Y15240D01*
G01X30480D01*
G01X34417Y17334D02*
G01X34364Y17281D01*
G01X32512D01*
G54D12*
G01X36744Y22438D02*
G01X38100Y21082D01*
G01X9548Y13993D02*
G01X9548Y7488D01*
G01X16256Y16002D02*
G01X13462Y16002D01*
G01X11049Y13589D01*
G01Y7986D01*
G01X39205Y4696D02*
G01X39205Y5118D01*
G54D15*
G01X39243Y22479D02*
G01X40486Y22479D01*
G01X40527Y22438D01*
G54D13*
G01X29464Y12573D02*
G01X28575Y12573D01*
G54D12*
G01X17272Y20701D02*
G01X18542Y20701D01*
G01X19558Y19812D02*
G01X19558Y18288D01*
G01X19812Y18034D01*
G54D13*
G01X35179Y19685D02*
G01X34934Y19685D01*
G01X34290Y20329D01*
G54D12*
G01X17272Y19050D02*
G01X17272Y18415D01*
G01X18669Y17018D01*
G01X21548Y21632D02*
G01X21548Y22589D01*
G01X15748Y18923D02*
G01X15748Y19177D01*
G01X17272Y20701D01*
G01X14605Y17145D02*
G01X12700Y17145D01*
G01X9548Y13993D01*
G01X27804Y6486D02*
G01X27804Y7239D01*
G01X26670Y11303D02*
G01X26670Y10417D01*
G01X28575Y15113D02*
G01X28575Y15993D01*
G01X28566Y16002D01*
G01X28575Y15113D02*
G01X28575Y14413D01*
G01X28513Y14351D01*
G01X22606Y19304D02*
G01X22225Y19685D01*
G01Y20955D01*
G01X21548Y21632D01*
G01X23548Y22588D02*
G01X23241Y22281D01*
G01Y20955D01*
G01X21336Y19685D02*
G01X21082Y19431D01*
G01Y14351D01*
G01X36027Y22438D02*
G01X37592Y24003D01*
G01Y25019D01*
G01X35927Y22438D02*
G01X36027Y22438D01*
G01X36744D01*
G01X39205Y5118D02*
G01X37973Y6350D01*
G01X27940D01*
G01X27804Y6486D01*
G01X20701Y9525D02*
G01X19685Y8509D01*
G01Y7488D01*
G01X21844Y9144D02*
G01X21844Y7784D01*
G01X21548Y7488D01*
G04 Track End*

M02*
